<svg width="51" height="64" viewBox="0 0 51 64" fill="none" xmlns="http://www.w3.org/2000/svg">
<g clip-path="url(#clip0)">
<mask id="path-1-outside-1" maskUnits="userSpaceOnUse" x="-1" y="1.41614" width="53" height="48" fill="black">
<rect fill="white" x="-1" y="1.41614" width="53" height="48"/>
<path d="M25.6147 2.41614C12.6602 2.41614 0 9.47303 0 9.47303V18.901C0 19.1319 0.25755 19.3183 0.57528 19.3183H12.4511C12.7689 19.3183 13.0264 19.1319 13.0264 18.901V12.6239C16.0701 11.9875 25.932 10.5999 37.8741 12.524V18.901C37.8741 19.1319 38.1317 19.3183 38.4494 19.3183H50.4242C50.7419 19.3183 51 19.1319 51 18.901V9.47303C51 9.47303 38.5687 2.41614 25.6147 2.41614ZM49.0079 17.3184H39.8662V10.8903C25.932 7.80033 11.0344 10.9983 11.0344 10.9983V17.3189H1.99257V10.6885C5.19078 9.08443 15.0736 4.41652 25.6147 4.41652C36.6236 4.41652 47.7508 10.0378 49.0079 10.6783V17.3184ZM43.1149 22.4502C42.8869 21.2798 41.8593 20.4303 40.6715 20.4303H35.0125V14.6842H26.7449V19.7852H24.2546V14.6842H15.9875V20.4303H10.3285C9.14022 20.4303 8.11257 21.2798 7.8846 22.4502L3.33387 45.8035C3.19005 46.5398 3.38028 47.294 3.85509 47.873C4.3299 48.4521 5.03064 48.7839 5.77728 48.7839H45.2227C45.9694 48.7839 46.6701 48.4521 47.1454 47.873C47.6202 47.294 47.8099 46.5398 47.6666 45.804L43.1149 22.4502ZM45.2227 46.784H5.77728C5.46363 46.784 5.22852 46.4958 5.2887 46.188L9.84045 22.8342C9.88584 22.6002 10.0914 22.4302 10.329 22.4302H17.9795V16.684H22.2625V21.7851H28.737V16.684H33.02V22.4302H40.671C40.9081 22.4302 41.1142 22.6002 41.1596 22.8342L45.7108 46.188C45.6073 46.6017 45.8133 46.784 45.2227 46.784ZM33.4978 27.7371C29.8059 23.3103 23.2137 22.7236 18.8037 26.4305C14.3937 30.1368 13.8098 36.755 17.5022 41.1827C20.9794 45.3519 27.0274 46.1143 31.4038 43.093C31.7602 43.4898 32.3692 43.5364 32.7813 43.1898C33.1939 42.8437 33.2551 42.2339 32.9276 41.8115C36.6593 38.0175 36.975 31.9058 33.4978 27.7371ZM31.6424 40.2668L30.3124 38.7953C29.9594 38.3719 29.3311 38.3155 28.9088 38.6703C28.4876 39.0252 28.4315 39.6559 28.7849 40.0794L30.115 41.5509C26.5888 43.8671 21.8005 43.221 19.0301 39.8986C16.0431 36.3167 16.5153 30.9632 20.0828 27.9639C23.6502 24.9646 28.9833 25.4387 31.9709 29.0207C34.7412 32.3431 34.5336 37.1886 31.6424 40.2668ZM24.1296 28.2511C24.1296 27.4919 24.7432 26.8754 25.5 26.8754C26.2568 26.8754 26.8704 27.4913 26.8704 28.2511C26.8704 29.011 26.2573 29.6274 25.5 29.6274C24.7432 29.6269 24.1296 29.011 24.1296 28.2511ZM25.5 31.1931C23.6885 31.1931 22.2151 32.6733 22.2151 34.4909C22.2151 36.31 23.689 37.7887 25.5 37.7887C27.311 37.7887 28.7849 36.3095 28.7849 34.4909C28.7849 32.6728 27.3115 31.1931 25.5 31.1931ZM25.5 35.7888C24.787 35.7888 24.2071 35.2067 24.2071 34.4909C24.2071 33.7756 24.787 33.193 25.5 33.193C26.213 33.193 26.7928 33.7756 26.7928 34.4909C26.7928 35.2072 26.213 35.7888 25.5 35.7888ZM26.8704 40.7311C26.8704 41.491 26.2573 42.1074 25.5 42.1074C24.7432 42.1074 24.1296 41.4915 24.1296 40.7311C24.1296 39.9719 24.7432 39.3559 25.5 39.3559C26.2568 39.3559 26.8704 39.9713 26.8704 40.7311ZM33.0862 34.4909C33.0862 35.2507 32.4727 35.8671 31.7154 35.8671C30.958 35.8671 30.345 35.2512 30.345 34.4909C30.345 33.7316 30.958 33.1151 31.7154 33.1151C32.4727 33.1151 33.0862 33.7316 33.0862 34.4909ZM19.2846 35.8671C18.5278 35.8671 17.9143 35.2512 17.9143 34.4909C17.9143 33.7316 18.5278 33.1151 19.2846 33.1151C20.0415 33.1151 20.655 33.7311 20.655 34.4909C20.6545 35.2512 20.041 35.8671 19.2846 35.8671ZM30.8642 31.0513C30.3292 31.5889 29.4617 31.5889 28.9267 31.0513C28.3912 30.5137 28.3912 29.6433 28.9267 29.1057C29.4617 28.5686 30.3292 28.5686 30.8642 29.1057C31.3987 29.6433 31.3987 30.5142 30.8642 31.0513ZM22.0738 37.931C22.6088 38.4681 22.6088 39.339 22.0738 39.8761C21.5383 40.4137 20.6713 40.4137 20.1358 39.8761C19.6008 39.339 19.6008 38.4681 20.1358 37.931C20.6713 37.3934 21.5383 37.3934 22.0738 37.931ZM20.1358 31.0513C19.6008 30.5137 19.6008 29.6433 20.1358 29.1057C20.6708 28.5686 21.5383 28.5686 22.0738 29.1057C22.6088 29.6433 22.6088 30.5137 22.0738 31.0513C21.5383 31.5889 20.6713 31.5889 20.1358 31.0513Z"/>
</mask>
<path d="M25.6147 2.41614C12.6602 2.41614 0 9.47303 0 9.47303V18.901C0 19.1319 0.25755 19.3183 0.57528 19.3183H12.4511C12.7689 19.3183 13.0264 19.1319 13.0264 18.901V12.6239C16.0701 11.9875 25.932 10.5999 37.8741 12.524V18.901C37.8741 19.1319 38.1317 19.3183 38.4494 19.3183H50.4242C50.7419 19.3183 51 19.1319 51 18.901V9.47303C51 9.47303 38.5687 2.41614 25.6147 2.41614ZM49.0079 17.3184H39.8662V10.8903C25.932 7.80033 11.0344 10.9983 11.0344 10.9983V17.3189H1.99257V10.6885C5.19078 9.08443 15.0736 4.41652 25.6147 4.41652C36.6236 4.41652 47.7508 10.0378 49.0079 10.6783V17.3184ZM43.1149 22.4502C42.8869 21.2798 41.8593 20.4303 40.6715 20.4303H35.0125V14.6842H26.7449V19.7852H24.2546V14.6842H15.9875V20.4303H10.3285C9.14022 20.4303 8.11257 21.2798 7.8846 22.4502L3.33387 45.8035C3.19005 46.5398 3.38028 47.294 3.85509 47.873C4.3299 48.4521 5.03064 48.7839 5.77728 48.7839H45.2227C45.9694 48.7839 46.6701 48.4521 47.1454 47.873C47.6202 47.294 47.8099 46.5398 47.6666 45.804L43.1149 22.4502ZM45.2227 46.784H5.77728C5.46363 46.784 5.22852 46.4958 5.2887 46.188L9.84045 22.8342C9.88584 22.6002 10.0914 22.4302 10.329 22.4302H17.9795V16.684H22.2625V21.7851H28.737V16.684H33.02V22.4302H40.671C40.9081 22.4302 41.1142 22.6002 41.1596 22.8342L45.7108 46.188C45.6073 46.6017 45.8133 46.784 45.2227 46.784ZM33.4978 27.7371C29.8059 23.3103 23.2137 22.7236 18.8037 26.4305C14.3937 30.1368 13.8098 36.755 17.5022 41.1827C20.9794 45.3519 27.0274 46.1143 31.4038 43.093C31.7602 43.4898 32.3692 43.5364 32.7813 43.1898C33.1939 42.8437 33.2551 42.2339 32.9276 41.8115C36.6593 38.0175 36.975 31.9058 33.4978 27.7371ZM31.6424 40.2668L30.3124 38.7953C29.9594 38.3719 29.3311 38.3155 28.9088 38.6703C28.4876 39.0252 28.4315 39.6559 28.7849 40.0794L30.115 41.5509C26.5888 43.8671 21.8005 43.221 19.0301 39.8986C16.0431 36.3167 16.5153 30.9632 20.0828 27.9639C23.6502 24.9646 28.9833 25.4387 31.9709 29.0207C34.7412 32.3431 34.5336 37.1886 31.6424 40.2668ZM24.1296 28.2511C24.1296 27.4919 24.7432 26.8754 25.5 26.8754C26.2568 26.8754 26.8704 27.4913 26.8704 28.2511C26.8704 29.011 26.2573 29.6274 25.5 29.6274C24.7432 29.6269 24.1296 29.011 24.1296 28.2511ZM25.5 31.1931C23.6885 31.1931 22.2151 32.6733 22.2151 34.4909C22.2151 36.31 23.689 37.7887 25.5 37.7887C27.311 37.7887 28.7849 36.3095 28.7849 34.4909C28.7849 32.6728 27.3115 31.1931 25.5 31.1931ZM25.5 35.7888C24.787 35.7888 24.2071 35.2067 24.2071 34.4909C24.2071 33.7756 24.787 33.193 25.5 33.193C26.213 33.193 26.7928 33.7756 26.7928 34.4909C26.7928 35.2072 26.213 35.7888 25.5 35.7888ZM26.8704 40.7311C26.8704 41.491 26.2573 42.1074 25.5 42.1074C24.7432 42.1074 24.1296 41.4915 24.1296 40.7311C24.1296 39.9719 24.7432 39.3559 25.5 39.3559C26.2568 39.3559 26.8704 39.9713 26.8704 40.7311ZM33.0862 34.4909C33.0862 35.2507 32.4727 35.8671 31.7154 35.8671C30.958 35.8671 30.345 35.2512 30.345 34.4909C30.345 33.7316 30.958 33.1151 31.7154 33.1151C32.4727 33.1151 33.0862 33.7316 33.0862 34.4909ZM19.2846 35.8671C18.5278 35.8671 17.9143 35.2512 17.9143 34.4909C17.9143 33.7316 18.5278 33.1151 19.2846 33.1151C20.0415 33.1151 20.655 33.7311 20.655 34.4909C20.6545 35.2512 20.041 35.8671 19.2846 35.8671ZM30.8642 31.0513C30.3292 31.5889 29.4617 31.5889 28.9267 31.0513C28.3912 30.5137 28.3912 29.6433 28.9267 29.1057C29.4617 28.5686 30.3292 28.5686 30.8642 29.1057C31.3987 29.6433 31.3987 30.5142 30.8642 31.0513ZM22.0738 37.931C22.6088 38.4681 22.6088 39.339 22.0738 39.8761C21.5383 40.4137 20.6713 40.4137 20.1358 39.8761C19.6008 39.339 19.6008 38.4681 20.1358 37.931C20.6713 37.3934 21.5383 37.3934 22.0738 37.931ZM20.1358 31.0513C19.6008 30.5137 19.6008 29.6433 20.1358 29.1057C20.6708 28.5686 21.5383 28.5686 22.0738 29.1057C22.6088 29.6433 22.6088 30.5137 22.0738 31.0513C21.5383 31.5889 20.6713 31.5889 20.1358 31.0513Z" fill="black"/>
<path d="M25.6147 2.41614C12.6602 2.41614 0 9.47303 0 9.47303V18.901C0 19.1319 0.25755 19.3183 0.57528 19.3183H12.4511C12.7689 19.3183 13.0264 19.1319 13.0264 18.901V12.6239C16.0701 11.9875 25.932 10.5999 37.8741 12.524V18.901C37.8741 19.1319 38.1317 19.3183 38.4494 19.3183H50.4242C50.7419 19.3183 51 19.1319 51 18.901V9.47303C51 9.47303 38.5687 2.41614 25.6147 2.41614ZM49.0079 17.3184H39.8662V10.8903C25.932 7.80033 11.0344 10.9983 11.0344 10.9983V17.3189H1.99257V10.6885C5.19078 9.08443 15.0736 4.41652 25.6147 4.41652C36.6236 4.41652 47.7508 10.0378 49.0079 10.6783V17.3184ZM43.1149 22.4502C42.8869 21.2798 41.8593 20.4303 40.6715 20.4303H35.0125V14.6842H26.7449V19.7852H24.2546V14.6842H15.9875V20.4303H10.3285C9.14022 20.4303 8.11257 21.2798 7.8846 22.4502L3.33387 45.8035C3.19005 46.5398 3.38028 47.294 3.85509 47.873C4.3299 48.4521 5.03064 48.7839 5.77728 48.7839H45.2227C45.9694 48.7839 46.6701 48.4521 47.1454 47.873C47.6202 47.294 47.8099 46.5398 47.6666 45.804L43.1149 22.4502ZM45.2227 46.784H5.77728C5.46363 46.784 5.22852 46.4958 5.2887 46.188L9.84045 22.8342C9.88584 22.6002 10.0914 22.4302 10.329 22.4302H17.9795V16.684H22.2625V21.7851H28.737V16.684H33.02V22.4302H40.671C40.9081 22.4302 41.1142 22.6002 41.1596 22.8342L45.7108 46.188C45.6073 46.6017 45.8133 46.784 45.2227 46.784ZM33.4978 27.7371C29.8059 23.3103 23.2137 22.7236 18.8037 26.4305C14.3937 30.1368 13.8098 36.755 17.5022 41.1827C20.9794 45.3519 27.0274 46.1143 31.4038 43.093C31.7602 43.4898 32.3692 43.5364 32.7813 43.1898C33.1939 42.8437 33.2551 42.2339 32.9276 41.8115C36.6593 38.0175 36.975 31.9058 33.4978 27.7371ZM31.6424 40.2668L30.3124 38.7953C29.9594 38.3719 29.3311 38.3155 28.9088 38.6703C28.4876 39.0252 28.4315 39.6559 28.7849 40.0794L30.115 41.5509C26.5888 43.8671 21.8005 43.221 19.0301 39.8986C16.0431 36.3167 16.5153 30.9632 20.0828 27.9639C23.6502 24.9646 28.9833 25.4387 31.9709 29.0207C34.7412 32.3431 34.5336 37.1886 31.6424 40.2668ZM24.1296 28.2511C24.1296 27.4919 24.7432 26.8754 25.5 26.8754C26.2568 26.8754 26.8704 27.4913 26.8704 28.2511C26.8704 29.011 26.2573 29.6274 25.5 29.6274C24.7432 29.6269 24.1296 29.011 24.1296 28.2511ZM25.5 31.1931C23.6885 31.1931 22.2151 32.6733 22.2151 34.4909C22.2151 36.31 23.689 37.7887 25.5 37.7887C27.311 37.7887 28.7849 36.3095 28.7849 34.4909C28.7849 32.6728 27.3115 31.1931 25.5 31.1931ZM25.5 35.7888C24.787 35.7888 24.2071 35.2067 24.2071 34.4909C24.2071 33.7756 24.787 33.193 25.5 33.193C26.213 33.193 26.7928 33.7756 26.7928 34.4909C26.7928 35.2072 26.213 35.7888 25.5 35.7888ZM26.8704 40.7311C26.8704 41.491 26.2573 42.1074 25.5 42.1074C24.7432 42.1074 24.1296 41.4915 24.1296 40.7311C24.1296 39.9719 24.7432 39.3559 25.5 39.3559C26.2568 39.3559 26.8704 39.9713 26.8704 40.7311ZM33.0862 34.4909C33.0862 35.2507 32.4727 35.8671 31.7154 35.8671C30.958 35.8671 30.345 35.2512 30.345 34.4909C30.345 33.7316 30.958 33.1151 31.7154 33.1151C32.4727 33.1151 33.0862 33.7316 33.0862 34.4909ZM19.2846 35.8671C18.5278 35.8671 17.9143 35.2512 17.9143 34.4909C17.9143 33.7316 18.5278 33.1151 19.2846 33.1151C20.0415 33.1151 20.655 33.7311 20.655 34.4909C20.6545 35.2512 20.041 35.8671 19.2846 35.8671ZM30.8642 31.0513C30.3292 31.5889 29.4617 31.5889 28.9267 31.0513C28.3912 30.5137 28.3912 29.6433 28.9267 29.1057C29.4617 28.5686 30.3292 28.5686 30.8642 29.1057C31.3987 29.6433 31.3987 30.5142 30.8642 31.0513ZM22.0738 37.931C22.6088 38.4681 22.6088 39.339 22.0738 39.8761C21.5383 40.4137 20.6713 40.4137 20.1358 39.8761C19.6008 39.339 19.6008 38.4681 20.1358 37.931C20.6713 37.3934 21.5383 37.3934 22.0738 37.931ZM20.1358 31.0513C19.6008 30.5137 19.6008 29.6433 20.1358 29.1057C20.6708 28.5686 21.5383 28.5686 22.0738 29.1057C22.6088 29.6433 22.6088 30.5137 22.0738 31.0513C21.5383 31.5889 20.6713 31.5889 20.1358 31.0513Z" stroke="black" stroke-width="0.4" mask="url(#path-1-outside-1)"/>
</g>
<defs>
<clipPath id="clip0">
<rect width="51" height="64" fill="white"/>
</clipPath>
</defs>
</svg>
