<svg width="50" height="63" viewBox="0 0 50 63" fill="none" xmlns="http://www.w3.org/2000/svg">
<path d="M1.40575 48.7795L1.40553 48.7792C1.38184 48.7467 1.37006 48.7144 1.36578 48.7026L1.36536 48.7015L1.36403 48.6978C1.33079 48.6413 1.30091 48.5796 1.27892 48.5084M1.40575 48.7795L1.47124 21.8995C1.48397 21.8596 1.49836 21.8227 1.51754 21.7862C1.52128 21.779 1.52473 21.7718 1.52816 21.7646C1.5353 21.7497 1.54236 21.7349 1.55172 21.7207C1.55424 21.7169 1.55567 21.7127 1.5571 21.7086C1.55863 21.7041 1.56017 21.6997 1.56306 21.6956C1.56905 21.6873 1.57673 21.6812 1.58442 21.6752C1.59094 21.67 1.59747 21.6649 1.60299 21.6583M1.40575 48.7795C1.41996 48.799 1.43488 48.813 1.44651 48.8226C1.44938 48.825 1.4522 48.8272 1.45482 48.8292M1.40575 48.7795L1.54056 48.6034M1.27892 48.5084L1.47002 48.4494M1.27892 48.5084C1.27895 48.5085 1.27897 48.5086 1.279 48.5087L1.47002 48.4494M1.27892 48.5084C1.2615 48.4522 1.25312 48.4 1.24725 48.354C1.2472 48.3538 1.24714 48.3536 1.24708 48.3534C1.24638 48.3506 1.24593 48.349 1.24511 48.3461C1.24446 48.3438 1.24358 48.3406 1.24218 48.3355C1.23756 48.3186 1.22773 48.2823 1.22773 48.2383V22.1168C1.22773 22.077 1.23713 22.0443 1.24046 22.0327L1.2408 22.0315L1.24099 22.0308C1.24101 22.03 1.24103 22.0292 1.24105 22.0282C1.24113 22.0246 1.24124 22.0194 1.24148 22.0114C1.24194 21.9958 1.24299 21.9695 1.24885 21.9398M1.47002 48.4494C1.4872 48.5051 1.51127 48.5545 1.54056 48.6034M1.47002 48.4494L1.54056 48.6034M1.24885 21.9398C1.25473 21.9098 1.26379 21.8846 1.2695 21.8692C1.2724 21.8614 1.27438 21.8562 1.27585 21.8523C1.27812 21.8464 1.27916 21.8437 1.28051 21.8394L1.28069 21.8388C1.29584 21.7913 1.31429 21.7432 1.34012 21.6939C1.34256 21.6892 1.34392 21.6863 1.34599 21.6819C1.34778 21.6782 1.35011 21.6732 1.35414 21.665C1.35887 21.6554 1.36521 21.6428 1.37335 21.6289C1.37427 21.6266 1.3753 21.6242 1.3764 21.6216C1.38129 21.6105 1.38888 21.5953 1.40055 21.5791M1.24885 21.9398C1.24887 21.9397 1.2489 21.9396 1.24892 21.9395L1.44509 21.9785L1.24878 21.9402C1.2488 21.9401 1.24883 21.94 1.24885 21.9398ZM1.40055 21.5791L1.56305 21.6956L1.40043 21.5792C1.40047 21.5792 1.40051 21.5791 1.40055 21.5791ZM1.40055 21.5791C1.42317 21.5475 1.44922 21.5271 1.45768 21.5204L1.45785 21.5203M1.45785 21.5203C1.45506 21.5235 1.45228 21.5268 1.44951 21.5301L1.60299 21.6583M1.45785 21.5203L1.45872 21.5196C1.46243 21.5167 1.46335 21.5159 1.46335 21.5159C1.46335 21.5159 1.46306 21.5162 1.46282 21.5164C1.46117 21.5178 1.45599 21.5224 1.44984 21.5297L1.60299 21.6583M1.45785 21.5203C1.48964 21.4834 1.52258 21.452 1.55639 21.4233M1.60299 21.6583C1.63089 21.6249 1.6608 21.5965 1.69428 21.5686C1.70064 21.5633 1.70563 21.557 1.71061 21.5507C1.71648 21.5433 1.72235 21.5358 1.73047 21.5301M1.73047 21.5301L1.61478 21.3669C1.58372 21.3889 1.56336 21.4144 1.55639 21.4233M1.73047 21.5301L1.61451 21.3671C4.18195 19.5402 6.70705 17.5789 9.12882 15.5369M1.73047 21.5301L9.12882 15.5369M1.55639 21.4233C1.55623 21.4235 1.55608 21.4237 1.55594 21.4239L1.55512 21.4249C1.55057 21.4306 1.55154 21.4294 1.55223 21.4286C1.55378 21.4268 1.55858 21.4214 1.56622 21.415M1.55639 21.4233C1.55966 21.4205 1.56293 21.4177 1.56622 21.415M1.56622 21.415L1.69405 21.5684L1.56648 21.4148C1.56639 21.4149 1.5663 21.4149 1.56622 21.415ZM9.12882 15.5369V15.6299H9.32882M9.12882 15.5369C9.15248 15.517 9.17614 15.497 9.19978 15.4771L9.32882 15.6299M9.12882 15.5369V6.7356C9.12882 6.22909 9.53628 5.8156 10.0431 5.8156H19.4556M9.12882 15.5369L19.5384 6.0156M9.32882 15.6299V6.7356C9.32882 6.33798 9.6483 6.0156 10.0431 6.0156H19.5384M9.32882 15.6299L19.5384 6.0156M19.5384 6.0156L19.3971 5.87413L19.4556 5.8156M19.5384 6.0156V5.8156H19.4556M19.5384 6.0156L23.4185 2.13821C24.3518 1.20798 25.8641 1.2129 26.7905 2.14806M19.4556 5.8156L23.2772 1.99674L23.2773 1.99656C24.289 0.988225 25.9283 0.99346 26.9325 2.00731M26.9325 2.00731L26.9324 2.00719L26.7905 2.14806M26.9325 2.00731L26.7905 2.14806M26.9325 2.00731L30.7113 5.8156M26.7905 2.14806L30.628 6.0156M30.628 6.0156V5.8156H30.7113M30.628 6.0156H39.9573C40.3521 6.0156 40.6716 6.33798 40.6716 6.7356V15.5607M30.628 6.0156L30.77 5.87473L30.7113 5.8156M30.7113 5.8156H39.9573C40.4641 5.8156 40.8716 6.22909 40.8716 6.7356V15.4686M40.6716 15.5607L40.8016 15.4088C40.8249 15.4287 40.8483 15.4487 40.8716 15.4686M40.6716 15.5607C43.0982 17.6374 45.6521 19.6463 48.272 21.5322M40.6716 15.5607H40.8716V15.4686M40.8716 15.4686C43.2731 17.5204 45.7987 19.5054 48.3889 21.3698L48.272 21.5322M48.272 21.5322L48.3889 21.3699C48.4205 21.3926 48.4409 21.4188 48.4476 21.4274C48.4809 21.4562 48.5113 21.4865 48.5405 21.5203M48.272 21.5322L48.5405 21.5203M1.54056 48.6034C1.54558 48.6118 1.54883 48.6208 1.55208 48.6297C1.55607 48.6407 1.56004 48.6516 1.56724 48.6615C1.57124 48.667 1.57654 48.6706 1.58184 48.6741C1.58672 48.6774 1.59161 48.6807 1.59549 48.6855L1.43978 48.811C1.44473 48.8171 1.44974 48.8232 1.45482 48.8292M1.45482 48.8292C1.52243 48.9087 1.6013 48.9734 1.69014 49.0252M1.45482 48.8292L1.69014 49.0252M1.69014 49.0252L1.69425 49.0283L1.69509 49.029C1.70276 49.0349 1.72362 49.0509 1.75094 49.0641L1.75111 49.0642C1.86418 49.1185 1.99503 49.1583 2.14202 49.1583H47.8563C48.002 49.1583 48.1322 49.1193 48.2449 49.0656M1.69014 49.0252L48.5975 21.5786M48.2449 49.0656C48.2448 49.0657 48.2446 49.0657 48.2444 49.0658L48.1592 48.8849L48.2454 49.0654C48.2452 49.0654 48.2451 49.0655 48.2449 49.0656ZM48.2449 49.0656C48.2757 49.051 48.2993 49.0331 48.3096 49.0252L48.3099 49.0249L48.3213 49.0163C48.3214 49.0162 48.3216 49.0161 48.3217 49.016C48.4003 48.9682 48.4747 48.9097 48.5396 48.8347C48.5438 48.8316 48.5488 48.8278 48.554 48.8235C48.566 48.8135 48.5811 48.799 48.5955 48.7793L48.4339 48.6615L48.5955 48.7793C48.6209 48.7444 48.6336 48.7099 48.6388 48.696L48.643 48.6845C48.67 48.6369 48.6961 48.584 48.7163 48.5222M48.7163 48.5222C48.7163 48.5223 48.7163 48.5224 48.7162 48.5225L48.5262 48.4601L48.7163 48.5222ZM48.7163 48.5222C48.7377 48.4571 48.7484 48.3954 48.7546 48.3365M48.7546 48.3365L48.757 48.328L48.7573 48.3271C48.7611 48.3136 48.7706 48.2796 48.7706 48.2383V22.1168C48.7706 22.0788 48.7618 22.0475 48.7586 22.0364M48.7546 48.3365L48.7538 48.3396C48.7537 48.3401 48.7547 48.3362 48.7553 48.3298L48.5564 48.3093L48.7554 48.3291C48.7551 48.3316 48.7549 48.334 48.7546 48.3365ZM48.7586 22.0364C48.7583 22.031 48.7582 22.0245 48.7576 22.0109C48.7568 21.9935 48.7552 21.9675 48.7493 21.9384L48.5532 21.9777L48.7495 21.9391C48.7435 21.9089 48.7343 21.8835 48.7287 21.8683C48.7257 21.8604 48.7237 21.8552 48.7222 21.8514C48.7201 21.8458 48.7191 21.8433 48.7179 21.8394L48.7176 21.8385C48.7041 21.7963 48.6873 21.7488 48.662 21.6996L48.662 21.6996C48.6613 21.6983 48.6602 21.696 48.6587 21.6929C48.6525 21.6802 48.6397 21.6539 48.625 21.6289C48.624 21.6265 48.623 21.624 48.6218 21.6213C48.6169 21.6101 48.6092 21.5949 48.5975 21.5786M48.7586 22.0364C48.7583 22.0357 48.7582 22.035 48.758 22.0345L48.7564 22.0291C48.7569 22.0311 48.7584 22.0376 48.7592 22.047C48.7588 22.0429 48.7587 22.0399 48.7586 22.0364ZM48.5975 21.5786C48.5977 21.5789 48.5979 21.5793 48.5982 21.5796L48.4354 21.6955L48.5975 21.5786ZM48.5405 21.5203L48.5395 21.5195C48.5359 21.5167 48.5349 21.5159 48.5349 21.5159L48.5355 21.5165C48.5372 21.5179 48.5419 21.522 48.5476 21.5287M48.5405 21.5203C48.5429 21.5231 48.5453 21.5259 48.5476 21.5287M48.5476 21.5287C48.5481 21.5292 48.5485 21.5297 48.5489 21.5302L48.5487 21.5299C48.5483 21.5295 48.548 21.5291 48.5476 21.5287ZM25.6384 3.3067C25.3417 3.00793 24.8612 3.00744 24.5651 3.30274L25.6384 3.3067ZM25.6384 3.3067C25.6385 3.30672 25.6385 3.30674 25.6385 3.30675L28.1279 5.8156H22.0502L24.5649 3.30285L25.6384 3.3067ZM48.4743 21.7713C48.4658 21.754 48.4575 21.737 48.4465 21.7206L48.5272 21.8995C48.515 21.8615 48.5021 21.826 48.4841 21.791C48.4807 21.7844 48.4775 21.7778 48.4743 21.7713ZM26.8298 36.2714L26.8297 36.2714C25.7356 37.0677 24.2647 37.0683 23.1693 36.2714L23.1692 36.2714L10.9574 27.3917V7.6556H30.2974C30.3081 7.65755 30.3212 7.65911 30.3361 7.65911C30.3514 7.65911 30.3646 7.65749 30.3751 7.6556H39.043V27.3904L26.8298 36.2714ZM9.12882 26.0621L3.70394 22.1175C5.54574 20.7761 7.36068 19.3719 9.12882 17.9201V26.0621ZM18.4105 35.0812L3.05631 46.4209V23.9167L18.4105 35.0812ZM31.5893 35.0806L46.942 23.9167V46.4188L31.5893 35.0806ZM27.9007 37.7628L30.0322 36.2129L45.0697 47.3183H4.9313L19.9675 36.2134L22.0983 37.7628C22.0983 37.7628 22.0983 37.7628 22.0983 37.7628C22.9654 38.3935 23.9826 38.7088 24.9992 38.7088C26.0165 38.7088 27.0337 38.3932 27.9007 37.7628L27.7901 37.6106L27.9007 37.7628ZM40.8716 17.8639C42.6304 19.326 44.4467 20.7473 46.3009 22.1128L40.8716 26.0607V17.8639Z" fill="black" stroke="black" stroke-width="0.4"/>
<path d="M28.8633 28.185L29.0175 28.1031L28.9571 27.9393L28.5639 26.8714L28.4826 26.6507L28.2778 26.7664C27.3031 27.3171 26.0327 27.6102 24.6543 27.6102C22.8794 27.6102 21.35 26.9883 20.2643 25.873C19.1785 24.7576 18.522 23.1336 18.522 21.1037C18.522 16.1593 21.8206 13.0571 25.7137 13.0571C27.5765 13.0571 29.0115 13.6853 29.982 14.7345C30.9545 15.7858 31.4787 17.2797 31.4787 19.0418C31.4787 20.4511 31.1351 21.5538 30.6517 22.2947C30.1655 23.04 29.5563 23.3971 29.0212 23.3873C28.8555 23.382 28.7306 23.3349 28.6348 23.2544C28.5372 23.1723 28.4532 23.0413 28.3963 22.8404C28.2804 22.4309 28.2911 21.7801 28.4742 20.8437L28.4745 20.842L29.3112 16.346L29.3396 16.1936L29.1991 16.1281C28.5295 15.8161 27.5632 15.5876 26.4781 15.5876C22.933 15.5876 20.4394 18.4943 20.4394 21.675C20.4394 23.7283 21.7428 25.0038 23.2999 25.0038C24.7147 25.0038 25.827 24.3729 26.6866 23.129C26.7447 23.6757 26.9443 24.1058 27.2428 24.4175C27.6289 24.8206 28.1592 25.0038 28.6973 25.0038C31.1629 25.0038 33.2833 22.6844 33.2833 18.8931C33.2833 16.7719 32.5454 14.9251 31.2482 13.6079C29.9506 12.2902 28.1049 11.5144 25.9123 11.5144C20.3104 11.5144 16.7175 16.0461 16.7175 21.2523C16.7175 26.1346 20.2348 29.2014 24.3834 29.2014C26.0593 29.2014 27.4736 28.9238 28.8633 28.185ZM26.7007 20.0491L26.7005 20.0507C26.5714 20.7842 26.1928 21.597 25.6747 22.2239C25.1529 22.855 24.5202 23.2629 23.8919 23.2629C23.4027 23.2629 23.0558 23.0864 22.8267 22.8031C22.5929 22.5138 22.4647 22.0913 22.4647 21.5749C22.4647 19.249 24.1504 17.3042 26.1831 17.3042C26.6092 17.3042 26.9472 17.3628 27.1852 17.4222L26.7007 20.0491Z" fill="black" stroke="black" stroke-width="0.4"/>
</svg>
