<svg width="131" height="88" viewBox="0 0 131 88" fill="none" xmlns="http://www.w3.org/2000/svg">
<g clip-path="url(#clip0)">
<path d="M77.7777 17.6363V17.5387C77.7207 17.3974 77.6356 17.2693 77.5273 17.1623V17.1623C77.4782 17.1085 77.4221 17.0616 77.3605 17.0228L69.0167 11.4461L68.8777 11.3764H68.7386C68.5592 11.2566 68.3545 11.1802 68.1406 11.1533H31.3725C30.4283 11.1533 29.5228 11.5294 28.8552 12.1987C28.1876 12.868 27.8125 13.7758 27.8125 14.7224V36.3463C27.5572 36.2855 27.2961 36.2528 27.0338 36.2487H14.685C13.7408 36.2487 12.8353 36.6247 12.1677 37.294C11.5001 37.9634 11.125 38.8712 11.125 39.8178V68.3149C11.1252 70.5324 11.8787 72.6837 13.2614 74.4146C14.644 76.1454 16.5734 77.3526 18.7317 77.8372C18.9501 77.9846 19.2057 78.0668 19.4688 78.0742H68.1406C70.7223 78.0742 73.1983 77.046 75.0239 75.2158C76.8494 73.3856 77.875 70.9033 77.875 68.3149V18.1242C77.872 17.9571 77.839 17.7918 77.7777 17.6363V17.6363ZM68.1406 19.5184V23.701H36.1562V19.5184H68.1406ZM69.5312 16.7301V15.1546L71.8953 16.7301H69.5312ZM13.9062 68.3149V39.8178C13.9062 39.6107 13.9883 39.4121 14.1343 39.2657C14.2804 39.1193 14.4785 39.037 14.685 39.037H27.0338C27.2403 39.037 27.4384 39.1193 27.5844 39.2657C27.7305 39.4121 27.8125 39.6107 27.8125 39.8178V68.3149C27.8125 70.1637 27.0799 71.9368 25.776 73.2441C24.472 74.5514 22.7035 75.2859 20.8594 75.2859C19.0153 75.2859 17.2467 74.5514 15.9428 73.2441C14.6388 71.9368 13.9063 70.1637 13.9062 68.3149ZM68.1406 75.2859H27.6595C28.5868 74.3782 29.324 73.2941 29.8279 72.0971C30.3317 70.9001 30.5921 69.6142 30.5938 68.3149V14.7224C30.5937 14.6199 30.6139 14.5184 30.653 14.4237C30.6922 14.3289 30.7495 14.2429 30.8218 14.1704C30.8942 14.0979 30.98 14.0404 31.0745 14.0011C31.169 13.9619 31.2702 13.9417 31.3725 13.9417H66.75V16.7301H34.7656C34.3968 16.7301 34.0431 16.877 33.7823 17.1384C33.5215 17.3999 33.375 17.7545 33.375 18.1242V25.0952C33.375 25.4649 33.5215 25.8196 33.7823 26.081C34.0431 26.3425 34.3968 26.4894 34.7656 26.4894H69.5312C69.9001 26.4894 70.2538 26.3425 70.5146 26.081C70.7754 25.8196 70.9219 25.4649 70.9219 25.0952V19.5184H75.0938V68.3149C75.0938 70.1637 74.3612 71.9368 73.0572 73.2441C71.7533 74.5514 69.9847 75.2859 68.1406 75.2859ZM55.625 30.6719C55.625 31.0417 55.4785 31.3963 55.2177 31.6578C54.9569 31.9192 54.6032 32.0661 54.2344 32.0661H34.7656C34.3968 32.0661 34.0431 31.9192 33.7823 31.6578C33.5215 31.3963 33.375 31.0417 33.375 30.6719C33.375 30.3022 33.5215 29.9475 33.7823 29.6861C34.0431 29.4246 34.3968 29.2777 34.7656 29.2777H54.2344C54.6032 29.2777 54.9569 29.4246 55.2177 29.6861C55.4785 29.9475 55.625 30.3022 55.625 30.6719ZM55.625 36.2487C55.625 36.6184 55.4785 36.973 55.2177 37.2345C54.9569 37.496 54.6032 37.6429 54.2344 37.6429H34.7656C34.3968 37.6429 34.0431 37.496 33.7823 37.2345C33.5215 36.973 33.375 36.6184 33.375 36.2487C33.375 35.8789 33.5215 35.5243 33.7823 35.2628C34.0431 35.0014 34.3968 34.8545 34.7656 34.8545H54.2344C54.6032 34.8545 54.9569 35.0014 55.2177 35.2628C55.4785 35.5243 55.625 35.8789 55.625 36.2487ZM55.625 41.8254C55.625 42.1952 55.4785 42.5498 55.2177 42.8112C54.9569 43.0727 54.6032 43.2196 54.2344 43.2196H34.7656C34.3968 43.2196 34.0431 43.0727 33.7823 42.8112C33.5215 42.5498 33.375 42.1952 33.375 41.8254C33.375 41.4556 33.5215 41.101 33.7823 40.8396C34.0431 40.5781 34.3968 40.4312 34.7656 40.4312H54.2344C54.6032 40.4312 54.9569 40.5781 55.2177 40.8396C55.4785 41.101 55.625 41.4556 55.625 41.8254ZM55.625 47.4022C55.625 47.7719 55.4785 48.1265 55.2177 48.388C54.9569 48.6495 54.6032 48.7963 54.2344 48.7963H34.7656C34.3968 48.7963 34.0431 48.6495 33.7823 48.388C33.5215 48.1265 33.375 47.7719 33.375 47.4022C33.375 47.0324 33.5215 46.6778 33.7823 46.4163C34.0431 46.1549 34.3968 46.008 34.7656 46.008H54.2344C54.6032 46.008 54.9569 46.1549 55.2177 46.4163C55.4785 46.6778 55.625 47.0324 55.625 47.4022ZM55.625 52.9789C55.625 53.3487 55.4785 53.7033 55.2177 53.9647C54.9569 54.2262 54.6032 54.3731 54.2344 54.3731H34.7656C34.3968 54.3731 34.0431 54.2262 33.7823 53.9647C33.5215 53.7033 33.375 53.3487 33.375 52.9789C33.375 52.6091 33.5215 52.2545 33.7823 51.9931C34.0431 51.7316 34.3968 51.5847 34.7656 51.5847H54.2344C54.6032 51.5847 54.9569 51.7316 55.2177 51.9931C55.4785 52.2545 55.625 52.6091 55.625 52.9789ZM55.625 58.5556C55.625 58.9254 55.4785 59.28 55.2177 59.5415C54.9569 59.8029 54.6032 59.9498 54.2344 59.9498H34.7656C34.3968 59.9498 34.0431 59.8029 33.7823 59.5415C33.5215 59.28 33.375 58.9254 33.375 58.5556C33.375 58.1859 33.5215 57.8313 33.7823 57.5698C34.0431 57.3083 34.3968 57.1615 34.7656 57.1615H54.2344C54.6032 57.1615 54.9569 57.3083 55.2177 57.5698C55.4785 57.8313 55.625 58.1859 55.625 58.5556ZM54.2344 62.7382H34.7656C34.3968 62.7382 34.0431 62.8851 33.7823 63.1465C33.5215 63.408 33.375 63.7626 33.375 64.1324V71.1033C33.375 71.4731 33.5215 71.8277 33.7823 72.0892C34.0431 72.3506 34.3968 72.4975 34.7656 72.4975H54.2344C54.6032 72.4975 54.9569 72.3506 55.2177 72.0892C55.4785 71.8277 55.625 71.4731 55.625 71.1033V64.1324C55.625 63.7626 55.4785 63.408 55.2177 63.1465C54.9569 62.8851 54.6032 62.7382 54.2344 62.7382ZM52.8438 69.7091H36.1562V65.5266H52.8438V69.7091ZM70.9219 62.7382H59.7969C59.4281 62.7382 59.0743 62.8851 58.8136 63.1465C58.5528 63.408 58.4062 63.7626 58.4062 64.1324V71.1033C58.4062 71.4731 58.5528 71.8277 58.8136 72.0892C59.0743 72.3506 59.4281 72.4975 59.7969 72.4975H70.9219C71.2907 72.4975 71.6444 72.3506 71.9052 72.0892C72.166 71.8277 72.3125 71.4731 72.3125 71.1033V64.1324C72.3125 63.7626 72.166 63.408 71.9052 63.1465C71.6444 62.8851 71.2907 62.7382 70.9219 62.7382ZM69.5312 69.7091H61.1875V65.5266H69.5312V69.7091ZM70.9219 29.2777H59.7969C59.4281 29.2777 59.0743 29.4246 58.8136 29.6861C58.5528 29.9475 58.4062 30.3022 58.4062 30.6719V58.5556C58.4062 58.9254 58.5528 59.28 58.8136 59.5415C59.0743 59.8029 59.4281 59.9498 59.7969 59.9498H70.9219C71.2907 59.9498 71.6444 59.8029 71.9052 59.5415C72.166 59.28 72.3125 58.9254 72.3125 58.5556V30.6719C72.3125 30.3022 72.166 29.9475 71.9052 29.6861C71.6444 29.4246 71.2907 29.2777 70.9219 29.2777ZM69.5312 57.1615H61.1875V32.0661H69.5312V57.1615Z" fill="black"/>
</g>
<circle cx="84" cy="45" r="16.5" fill="#FFF6E5" stroke="black" stroke-width="3"/>
<path d="M80.071 43.3668L80.071 43.3668L80.0691 43.3684L74.9779 47.7523C74.8111 47.8936 74.7002 48.1157 74.7002 48.3463C74.7002 48.5771 74.8111 48.7993 74.9781 48.9406C74.9784 48.9408 74.9787 48.941 74.979 48.9413L80.0815 53.3186C80.2336 53.4673 80.4329 53.5194 80.5932 53.5194C80.8206 53.5194 81.0227 53.4279 81.183 53.2387L81.183 53.2387L81.1852 53.236C81.4552 52.9081 81.4371 52.4049 81.0972 52.1175C81.0969 52.1172 81.0967 52.117 81.0964 52.1168L76.7021 48.3463L81.0972 44.5752C81.4371 44.2877 81.4552 43.7846 81.1852 43.4567C80.9004 43.1108 80.3978 43.0912 80.071 43.3668Z" fill="black" stroke="black" stroke-width="0.5"/>
<path d="M75.4822 49.135H91.5182C91.9441 49.135 92.3002 48.7702 92.3002 48.3466C92.3002 47.9288 91.9688 47.5581 91.5182 47.5581H75.4822C75.0563 47.5581 74.7002 47.9229 74.7002 48.3466C74.7002 48.7644 75.0315 49.135 75.4822 49.135Z" fill="black" stroke="black" stroke-width="0.5"/>
<path d="M85.9034 37.1137L90.2991 40.8854L85.9043 44.6746C85.9039 44.6749 85.9035 44.6752 85.9031 44.6755C85.566 44.961 85.5458 45.4588 85.8097 45.7867C85.9624 45.9972 86.1973 46.0772 86.4075 46.0772C86.5991 46.0772 86.7703 46.0181 86.9296 45.8837L86.9296 45.8837L86.932 45.8817L92.0229 41.4788C92.1897 41.3374 92.3005 41.1155 92.3005 40.8849C92.3005 40.6543 92.1896 40.4322 92.0227 40.2909L86.9316 35.907L86.9316 35.907L86.9296 35.9054C86.6029 35.6297 86.1002 35.6494 85.8155 35.9952C85.5455 36.3231 85.5636 36.8263 85.9034 37.1137Z" fill="black" stroke="black" stroke-width="0.5"/>
<path d="M75.4822 41.6736H91.5182C91.9441 41.6736 92.3002 41.3088 92.3002 40.8851C92.3002 40.4674 91.9688 40.0967 91.5182 40.0967H75.4822C75.0563 40.0967 74.7002 40.4615 74.7002 40.8851C74.7002 41.3029 75.0315 41.6736 75.4822 41.6736Z" fill="black" stroke="black" stroke-width="0.5"/>
<defs>
<clipPath id="clip0">
<rect width="131" height="88" fill="white"/>
</clipPath>
</defs>
</svg>
