<svg width="100" height="98" viewBox="0 0 100 98" fill="none" xmlns="http://www.w3.org/2000/svg">
<g clip-path="url(#clip0)">
<path d="M34.375 57.104H31.25V60.2653H34.375V57.104Z" fill="black"/>
<path d="M62.5 57.104H59.375V60.2653H62.5V57.104Z" fill="black"/>
<path d="M45.3125 46.0396V48.842C44.0404 48.9391 42.8513 49.5178 41.9825 50.4627C41.1136 51.4076 40.6289 52.6491 40.625 53.9396V55.1251C40.6267 56.487 41.1622 57.7927 42.1142 58.7557C43.0661 59.7188 44.3568 60.2605 45.7031 60.2622H48.0469C48.5652 60.263 49.0619 60.4719 49.4281 60.8429C49.7943 61.214 50 61.7169 50 62.2412V63.4266C49.9992 63.9504 49.7931 64.4525 49.427 64.8228C49.0609 65.1932 48.5646 65.4016 48.0469 65.4024H45.7031C45.1854 65.4016 44.6891 65.1932 44.323 64.8228C43.9569 64.4525 43.7508 63.9504 43.75 63.4266H40.625C40.6292 64.717 41.1141 65.9584 41.9829 66.9032C42.8517 67.848 44.0406 68.4268 45.3125 68.5242V71.3299H48.4375V68.5242C49.7094 68.4268 50.8983 67.848 51.7671 66.9032C52.6359 65.9584 53.1208 64.717 53.125 63.4266V62.2412C53.1233 60.8792 52.5878 59.5736 51.6358 58.6105C50.6839 57.6475 49.3932 57.1057 48.0469 57.1041H45.7031C45.1854 57.1032 44.6891 56.8948 44.323 56.5244C43.9569 56.1541 43.7508 55.652 43.75 55.1283V53.9428C43.7508 53.419 43.9569 52.9169 44.323 52.5466C44.6891 52.1762 45.1854 51.9678 45.7031 51.967H48.0469C48.5646 51.9678 49.0609 52.1762 49.427 52.5466C49.7931 52.9169 49.9992 53.419 50 53.9428H53.125C53.1219 52.6517 52.6375 51.4094 51.7686 50.4638C50.8997 49.5183 49.7101 48.9391 48.4375 48.842V46.0396H45.3125Z" fill="black"/>
<path d="M4.86729 64.1616C4.99971 64.4166 5.19853 64.6302 5.44225 64.7792C5.68596 64.9283 5.96531 65.0071 6.2501 65.0072H6.27666L10.3298 64.9377C11.5454 69.4251 16.6845 83.7742 32.6985 83.7742C33.3725 83.7742 34.0668 83.7479 34.7813 83.6952C35.1651 83.6654 35.5245 83.4933 35.7906 83.212C36.0567 82.9308 36.2108 82.56 36.2234 82.1708C36.236 81.7817 36.1062 81.4015 35.8588 81.1033C35.6114 80.805 35.2639 80.6095 34.8829 80.5544C30.0749 79.6021 25.7876 76.8781 22.8517 72.9104H30.1392C32.9022 76.2586 36.5864 78.7007 40.7241 79.9267C44.8617 81.1526 49.2662 81.107 53.3782 79.7957C54.1954 80.4516 55.207 80.8102 56.2501 80.8137H82.8126C84.0558 80.8137 85.2481 80.3141 86.1272 79.4248C87.0062 78.5355 87.5001 77.3294 87.5001 76.0717V74.4911C87.5001 73.2334 87.0062 72.0273 86.1272 71.138C85.2481 70.2487 84.0558 69.7491 82.8126 69.7491H80.9626C81.1477 69.2429 81.2449 68.7082 81.2501 68.1685V66.5878C81.246 65.4175 80.8116 64.2906 80.0313 63.4266C80.8116 62.5625 81.246 61.4356 81.2501 60.2653V58.6846C81.246 57.5143 80.8116 56.3874 80.0313 55.5233C80.8116 54.6592 81.246 53.5324 81.2501 52.362V50.7814C81.2501 49.5238 80.7562 48.3176 79.8772 47.4283C78.9981 46.5391 77.8058 46.0395 76.5626 46.0395H64.8017C62.9377 43.3363 60.4999 41.0889 57.6667 39.4616C54.8335 37.8344 51.6765 36.8685 48.4267 36.6346C48.4267 36.6078 48.4376 36.5825 48.4376 36.5556V34.975C48.4333 33.88 48.0509 32.821 47.3563 31.9812L57.8845 21.3387L69.2907 31.4311C69.5983 31.7051 69.9999 31.8459 70.4091 31.8231C70.8183 31.8003 71.2022 31.6159 71.4782 31.3094L85.9376 15.3323V18.9678H89.0626V11.0645C89.0626 10.6453 88.898 10.2433 88.6049 9.94685C88.3119 9.65042 87.9145 9.48389 87.5001 9.48389H79.6876V12.6452H84.1298L70.1923 28.0249L58.8407 17.9783C58.5423 17.7146 58.1561 17.5754 57.7601 17.5889C57.3642 17.6024 56.9881 17.7676 56.7079 18.051L48.3782 26.4774C48.2603 25.522 47.8557 24.6261 47.2188 23.9104C47.9991 23.0463 48.4335 21.9195 48.4376 20.7491V19.1685C48.4376 17.9109 47.9437 16.7047 47.0647 15.8154C46.1856 14.9262 44.9933 14.4266 43.7501 14.4266H17.1876C15.9444 14.4266 14.7521 14.9262 13.873 15.8154C12.994 16.7047 12.5001 17.9109 12.5001 19.1685V20.7491C12.5042 21.9195 12.9386 23.0463 13.7188 23.9104C12.9386 24.7745 12.5042 25.9014 12.5001 27.0717V28.6524C12.5042 29.8227 12.9386 30.9496 13.7188 31.8137C12.9386 32.6777 12.5042 33.8046 12.5001 34.975V36.5556C12.5042 37.7259 12.9386 38.8528 13.7188 39.7169C12.9386 40.581 12.5042 41.7079 12.5001 42.8782V44.4588C12.5042 45.6291 12.9386 46.756 13.7188 47.6201C12.9386 48.4842 12.5042 49.6111 12.5001 50.7814V51.8562L4.97979 62.5082C4.8116 62.7463 4.71203 63.0269 4.69217 63.3188C4.6723 63.6107 4.73293 63.9024 4.86729 64.1616V64.1616ZM20.9173 69.7491C20.1657 68.2351 19.5723 66.6459 19.147 65.0072H25.922C26.4117 66.6634 27.0936 68.2551 27.9532 69.7491H20.9173ZM15.6251 50.7814C15.6251 50.3622 15.7897 49.9601 16.0827 49.6637C16.3758 49.3673 16.7732 49.2008 17.1876 49.2008H27.1407C26.4224 50.7133 25.8782 52.3044 25.5188 53.9427H17.4579L15.6251 51.7788V50.7814ZM15.6251 44.4588V42.8782C15.6251 42.459 15.7897 42.0569 16.0827 41.7605C16.3758 41.4641 16.7732 41.2975 17.1876 41.2975H33.3876C31.6857 42.649 30.1899 44.2468 28.9485 46.0395H17.1876C16.7732 46.0395 16.3758 45.8729 16.0827 45.5765C15.7897 45.2801 15.6251 44.878 15.6251 44.4588ZM15.6251 36.5556V34.975C15.6251 34.5557 15.7897 34.1537 16.0827 33.8573C16.3758 33.5608 16.7732 33.3943 17.1876 33.3943H43.7501C44.1645 33.3943 44.5619 33.5608 44.855 33.8573C45.148 34.1537 45.3126 34.5557 45.3126 34.975V36.5556C45.3126 36.5825 45.3032 36.6093 45.3017 36.6362C43.0721 36.7945 40.88 37.3005 38.8032 38.1362H17.1876C16.9824 38.1362 16.7792 38.0954 16.5897 38.0159C16.4001 37.9365 16.2278 37.8201 16.0827 37.6733C15.9377 37.5265 15.8226 37.3523 15.744 37.1605C15.6655 36.9687 15.6251 36.7632 15.6251 36.5556V36.5556ZM15.6251 28.6524V27.0717C15.6251 26.6525 15.7897 26.2505 16.0827 25.954C16.3758 25.6576 16.7732 25.4911 17.1876 25.4911H43.7501C44.1645 25.4911 44.5619 25.6576 44.855 25.954C45.148 26.2505 45.3126 26.6525 45.3126 27.0717V28.6524C45.3126 29.0716 45.148 29.4736 44.855 29.7701C44.5619 30.0665 44.1645 30.233 43.7501 30.233H17.1876C16.9824 30.233 16.7792 30.1921 16.5897 30.1127C16.4001 30.0333 16.2278 29.9168 16.0827 29.7701C15.9377 29.6233 15.8226 29.449 15.744 29.2573C15.6655 29.0655 15.6251 28.8599 15.6251 28.6524V28.6524ZM25.0798 57.104C25.0423 57.6288 25.0001 58.1504 25.0001 58.6846C25.008 59.7431 25.0915 60.7996 25.2501 61.8459H24.1563L20.1392 57.104H25.0798ZM84.3751 74.4911V76.0717C84.3751 76.4909 84.2105 76.893 83.9174 77.1894C83.6244 77.4858 83.227 77.6524 82.8126 77.6524H56.2501C55.8357 77.6524 55.4383 77.4858 55.1452 77.1894C54.8522 76.893 54.6876 76.4909 54.6876 76.0717V74.4911C54.6876 74.0719 54.8522 73.6698 55.1452 73.3734C55.4383 73.077 55.8357 72.9104 56.2501 72.9104H82.8126C83.227 72.9104 83.6244 73.077 83.9174 73.3734C84.2105 73.6698 84.3751 74.0719 84.3751 74.4911ZM65.8079 69.7491C66.6694 68.2561 67.3514 66.6641 67.8392 65.0072H76.5626C76.977 65.0072 77.3744 65.1737 77.6675 65.4702C77.9605 65.7666 78.1251 66.1686 78.1251 66.5878V68.1685C78.1251 68.5877 77.9605 68.9898 77.6675 69.2862C77.3744 69.5826 76.977 69.7491 76.5626 69.7491H65.8079ZM68.6704 57.104H76.5626C76.977 57.104 77.3744 57.2705 77.6675 57.5669C77.9605 57.8634 78.1251 58.2654 78.1251 58.6846V60.2653C78.1251 60.6845 77.9605 61.0865 77.6675 61.383C77.3744 61.6794 76.977 61.8459 76.5626 61.8459H68.5157C68.6672 60.799 68.7455 59.7426 68.7501 58.6846C68.7501 58.1504 68.7079 57.6288 68.6704 57.104V57.104ZM76.5626 49.2008C76.977 49.2008 77.3744 49.3673 77.6675 49.6637C77.9605 49.9601 78.1251 50.3622 78.1251 50.7814V52.362C78.1251 52.7813 77.9605 53.1833 77.6675 53.4797C77.3744 53.7762 76.977 53.9427 76.5626 53.9427H68.2313C67.872 52.3044 67.3278 50.7133 66.6095 49.2008H76.5626ZM65.6251 58.6846C65.6339 62.6589 64.3946 66.5334 62.086 69.7491H56.2501C55.0069 69.7491 53.8146 70.2487 52.9355 71.138C52.0565 72.0273 51.5626 73.2334 51.5626 74.4911V76.0717C51.5628 76.3903 51.5947 76.708 51.6579 77.0201C47.8726 78.0303 43.8697 77.8166 40.2105 76.4089C36.5514 75.0013 33.4195 72.4703 31.2543 69.171C29.089 65.8716 27.9988 61.9694 28.1367 58.0116C28.2746 54.0538 29.6337 50.239 32.0233 47.1021C34.4128 43.9651 37.7131 41.6635 41.4611 40.52C45.2092 39.3765 49.217 39.4485 52.9226 40.7258C56.6282 42.0031 59.8456 44.4217 62.1237 47.6424C64.4017 50.8631 65.6261 54.7244 65.6251 58.6846V58.6846ZM15.6251 19.1685C15.6251 18.7493 15.7897 18.3472 16.0827 18.0508C16.3758 17.7544 16.7732 17.5879 17.1876 17.5879H43.7501C44.1645 17.5879 44.5619 17.7544 44.855 18.0508C45.148 18.3472 45.3126 18.7493 45.3126 19.1685V20.7491C45.3126 21.1684 45.148 21.5704 44.855 21.8668C44.5619 22.1633 44.1645 22.3298 43.7501 22.3298H17.1876C16.7732 22.3298 16.3758 22.1633 16.0827 21.8668C15.7897 21.5704 15.6251 21.1684 15.6251 20.7491V19.1685ZM14.1735 54.9227L20.0407 61.8459H17.1876C16.9573 61.8461 16.73 61.8978 16.5218 61.9972C16.3136 62.0966 16.1296 62.2414 15.9832 62.4211C15.8367 62.6008 15.7313 62.8111 15.6746 63.0368C15.6178 63.2626 15.611 63.4982 15.6548 63.7269C16.6043 69.5569 19.579 74.853 24.0438 78.6624C15.2235 74.2113 13.197 63.6463 13.0923 63.0551C13.0274 62.6903 12.8379 62.3602 12.5569 62.1224C12.2759 61.8846 11.9212 61.7543 11.5548 61.7542H11.5282L9.32354 61.7938L14.1735 54.9227Z" fill="black"/>
</g>
<defs>
<clipPath id="clip0">
<rect width="100" height="98" fill="white"/>
</clipPath>
</defs>
</svg>
