<svg width="79" height="95" viewBox="0 0 79 95" fill="none" xmlns="http://www.w3.org/2000/svg">
<path d="M25.0163 13.0585H47.9981C48.7163 13.0585 49.1951 12.6003 49.1951 11.913C49.1951 11.2258 48.7163 10.7676 47.9981 10.7676H25.0163C24.2981 10.7676 23.8193 11.2258 23.8193 11.913C23.8193 12.6003 24.4178 13.0585 25.0163 13.0585Z" fill="black" stroke="black" stroke-width="0.6"/>
<path d="M49.3149 20.7329C49.3149 20.0456 48.8361 19.5874 48.118 19.5874H29.924C29.2058 19.5874 28.7271 20.0456 28.7271 20.7329C28.7271 21.4201 29.2058 21.8783 29.924 21.8783H47.9983C48.7164 21.8783 49.3149 21.3056 49.3149 20.7329Z" fill="black" stroke="black" stroke-width="0.6"/>
<path d="M48.1181 28.293H32.3181C31.5999 28.293 31.1211 28.7512 31.1211 29.4384C31.1211 30.1257 31.5999 30.5839 32.3181 30.5839H47.9984C48.7165 30.5839 49.1953 30.1257 49.1953 29.4384C49.315 28.7512 48.7165 28.293 48.1181 28.293Z" fill="black" stroke="black" stroke-width="0.6"/>
<path d="M44.2878 36.998H34.8317C34.1136 36.998 33.6348 37.4562 33.6348 38.1435C33.6348 38.8308 34.1136 39.289 34.8317 39.289H44.2878C45.006 39.289 45.4848 38.8308 45.4848 38.1435C45.4848 37.4562 45.006 36.998 44.2878 36.998Z" fill="black" stroke="black" stroke-width="0.6"/>
<path d="M28.2482 45.7036H10.2937C9.57547 45.7036 9.09668 46.1618 9.09668 46.8491C9.09668 47.5363 9.57547 47.9945 10.2937 47.9945H28.2482C28.9664 47.9945 29.4452 47.5363 29.4452 46.8491C29.4452 46.1618 28.9664 45.7036 28.2482 45.7036Z" fill="black" stroke="black" stroke-width="0.6"/>
<path d="M24.1785 54.4092H10.2936C9.57547 54.4092 9.09668 54.8674 9.09668 55.5546C9.09668 56.2419 9.57547 56.7001 10.2936 56.7001H24.1785C24.8967 56.7001 25.3755 56.2419 25.3755 55.5546C25.3755 54.8674 24.777 54.4092 24.1785 54.4092Z" fill="black" stroke="black" stroke-width="0.6"/>
<path d="M19.7497 63.1147H10.2936C9.57547 63.1147 9.09668 63.5729 9.09668 64.2602C9.09668 64.9475 9.57547 65.4057 10.2936 65.4057H19.7497C20.4679 65.4057 20.9467 64.9475 20.9467 64.2602C20.9467 63.5729 20.3482 63.1147 19.7497 63.1147Z" fill="black" stroke="black" stroke-width="0.6"/>
<path d="M77.0847 24.971L71.9377 20.0455C70.9801 19.1292 69.424 19.1292 68.5862 20.0455L57.215 30.9273V6.64371C57.215 4.69644 55.5392 3.20735 53.624 3.20735C13.8847 3.20735 16.3983 3.0928 16.0392 3.32189C15.5604 3.43644 1.43617 16.9528 1.31647 17.411C1.19678 17.8692 1.31647 14.5473 1.19678 68.9564C1.19678 70.9037 2.87253 72.3928 4.78769 72.3928H53.5044C55.5392 72.3928 57.0953 70.7892 57.0953 68.9564V47.3073L77.0847 28.1783C78.0422 27.3764 78.0422 25.8873 77.0847 24.971ZM55.1801 45.9328C55.0604 45.9328 55.0604 46.0473 54.9407 46.1619L42.3725 58.1892L40.6968 56.5855L67.9877 30.4692L69.6634 32.0728L55.1801 45.9328ZM36.1483 55.4401L40.218 59.3346L34.1134 61.2819L36.1483 55.4401ZM39.021 54.9819L37.3453 53.3783L64.6362 27.1473L66.3119 28.751L39.021 54.9819ZM15.2013 7.10189V16.6092H5.26647L15.2013 7.10189ZM54.821 68.9564C54.821 69.6437 54.2225 70.1019 53.624 70.1019H4.78769C4.0695 70.1019 3.59072 69.5292 3.59072 68.9564V18.9001H16.3983C17.1165 18.9001 17.5953 18.4419 17.5953 17.7546V5.49826H53.5044C54.2225 5.49826 54.7013 6.07098 54.7013 6.64371V33.3328L34.7119 52.4619C34.3528 52.8055 34.4725 52.8055 31.0013 62.771C30.7619 63.4583 31.3604 64.2601 32.0786 64.2601C32.1983 64.2601 32.318 64.2601 32.4377 64.1455L42.7316 60.8237C42.8513 60.8237 43.0907 60.7092 43.2104 60.5946L54.7013 49.5983V68.9564H54.821ZM71.4589 30.4692L66.3119 25.5437L70.2619 21.7637L75.4089 26.6892L71.4589 30.4692Z" fill="black" stroke="black" stroke-width="0.6"/>
<path d="M17.2063 20.6182V23.0299C16.11 23.1134 15.0852 23.6114 14.3364 24.4245C13.5876 25.2376 13.1698 26.3061 13.1665 27.4166V28.4368C13.1679 29.6088 13.6295 30.7324 14.4499 31.5611C15.2703 32.3898 16.3827 32.8561 17.5429 32.8575H19.5628C20.0095 32.8582 20.4376 33.038 20.7532 33.3573C21.0688 33.6765 21.2461 34.1093 21.246 34.5605V35.5807C21.2453 36.0314 21.0678 36.4634 20.7523 36.7822C20.4367 37.1009 20.009 37.2802 19.5628 37.2809H17.5429C17.0967 37.2802 16.669 37.1009 16.3535 36.7822C16.038 36.4634 15.8604 36.0314 15.8597 35.5807H13.1665C13.1701 36.6911 13.588 37.7594 14.3367 38.5724C15.0855 39.3855 16.1101 39.8836 17.2063 39.9674V42.3818H19.8995V39.9674C20.9956 39.8836 22.0202 39.3855 22.769 38.5724C23.5177 37.7594 23.9356 36.6911 23.9392 35.5807V34.5605C23.9378 33.3885 23.4763 32.2649 22.6558 31.4361C21.8354 30.6074 20.7231 30.1412 19.5628 30.1398H17.5429C17.0967 30.139 16.669 29.9597 16.3535 29.641C16.038 29.3223 15.8604 28.8902 15.8597 28.4395V27.4193C15.8604 26.9686 16.038 26.5365 16.3535 26.2178C16.669 25.8991 17.0967 25.7197 17.5429 25.719H19.5628C20.009 25.7197 20.4367 25.8991 20.7523 26.2178C21.0678 26.5365 21.2453 26.9686 21.246 27.4193H23.9392C23.9366 26.3083 23.5191 25.2392 22.7703 24.4255C22.0214 23.6118 20.9962 23.1134 19.8995 23.0299V20.6182H17.2063Z" fill="black" stroke="black" stroke-width="0.6"/>
</svg>
