<svg width="50" height="63" viewBox="0 0 50 63" fill="none" xmlns="http://www.w3.org/2000/svg"><path d="M1.406 48.78a.306.306 0 0 1-.04-.077V48.7l-.002-.003a.885.885 0 0 1-.085-.19m.127.271L1.47 21.9a.69.69 0 0 1 .057-.134c.007-.015.014-.03.024-.044l.005-.012a.049.049 0 0 1 .006-.013.103.103 0 0 1 .021-.02l.019-.018M1.406 48.78a.236.236 0 0 0 .049.05m-.05-.05l.136-.176m-.262-.095l.191-.059m-.191.06l.191-.06m-.191.06a.892.892 0 0 1-.032-.155.212.212 0 0 0-.005-.018.363.363 0 0 1-.014-.098V22.117c0-.04.01-.073.012-.084v-.002h.001v-.02a.43.43 0 0 1 .008-.071m.221 26.51a.694.694 0 0 0 .07.153m-.07-.154l.07.154M1.25 21.94a.45.45 0 0 1 .02-.07l.007-.018.005-.013a.89.89 0 0 1 .06-.145l.005-.012.008-.017a.558.558 0 0 1 .02-.036l.002-.007a.233.233 0 0 1 .025-.043m-.152.36l.196.04-.196-.039zm.152-.36l.162.117-.163-.117zm0 0c.022-.032.048-.052.057-.059m0 0a.69.69 0 0 0-.008.01l.153.128m-.145-.138a.117.117 0 0 0-.009.01l.154.128m-.145-.138a.879.879 0 0 1 .098-.097m.047.235a.698.698 0 0 1 .091-.09.116.116 0 0 0 .017-.017.055.055 0 0 1 .02-.02m0 0l-.116-.164a.284.284 0 0 0-.059.056m.174.107l-.115-.163a116.357 116.357 0 0 0 7.514-5.83m-7.4 5.993l7.399-5.993m-7.573 5.886v.002l-.004.004a.123.123 0 0 1 .014-.014m-.01.008l.01-.008m0 0l.128.153-.128-.153zm7.563-5.878v.093h.2m-.2-.093l.07-.06.13.153m-.2-.093V6.736c0-.507.407-.92.914-.92h9.413m-10.327 9.72l10.41-9.52M9.328 15.63V6.736c0-.398.32-.72.714-.72h9.495M9.328 15.63l10.21-9.614m0 0l-.14-.142.058-.058m.082.2v-.2h-.082m.082.2l3.88-3.878a2.382 2.382 0 0 1 3.373.01m-7.335 3.668l3.821-3.82a2.581 2.581 0 0 1 3.655.011m0 0l-.141.141m.142-.14l-.142.14m.142-.14l3.778 3.808m-3.92-3.668l3.837 3.868m0 0v-.2h.083m-.083.2h9.33c.394 0 .714.322.714.72v8.825M30.628 6.016l.142-.141-.059-.06m0 0h9.246c.507 0 .915.414.915.92v8.734m-.2.092l.13-.152.07.06m-.2.092a115.623 115.623 0 0 0 7.6 5.971m-7.6-5.971h.2v-.092m0 0a115.402 115.402 0 0 0 7.517 5.9l-.117.163m0 0l.117-.162c.031.023.052.049.059.057.033.03.063.06.093.093m-.269.012l.269-.012m-47 27.083a.153.153 0 0 1 .011.027.123.123 0 0 0 .015.031c.004.006.01.01.015.013.005.003.01.007.013.011l-.155.126.015.018m0 0c.067.08.146.144.235.196m-.235-.196l.235.196m0 0l.004.003.001.001a.322.322 0 0 0 .056.035.897.897 0 0 0 .391.094h45.714a.898.898 0 0 0 .389-.092m-46.555-.04l46.907-27.447m-.352 27.487l-.086-.181.086.18zm0 0a.36.36 0 0 0 .065-.04v-.001l.011-.009a.908.908 0 0 0 .219-.181.249.249 0 0 0 .056-.055l-.162-.119.162.118c.025-.035.038-.07.043-.083l.004-.011a.879.879 0 0 0 .073-.163m0 0l-.19-.062.19.062zm0 0a.88.88 0 0 0 .039-.185m0 0l.002-.009a.326.326 0 0 0 .014-.09V22.117a.292.292 0 0 0-.012-.08m-.004 26.3l-.001.003.001-.01-.199-.02.2.02-.001.007zm.004-26.3l-.001-.026a.468.468 0 0 0-.009-.073l-.196.04.197-.039a.463.463 0 0 0-.028-.088l-.004-.012a.892.892 0 0 0-.056-.14l-.003-.006a.902.902 0 0 0-.034-.064l-.003-.008a.235.235 0 0 0-.025-.042m.162.457l-.001-.002-.002-.005.003.018v-.01zm-.162-.457h.001l-.163.116.162-.116zm-.056-.059h-.002a.101.101 0 0 1 .008.01m-.006-.01a.528.528 0 0 1 .007.009m0 0zM25.638 3.307a.758.758 0 0 0-1.073-.004l1.073.004zm0 0l2.49 2.509H22.05l2.515-2.513 1.073.004zM48.474 21.77a.346.346 0 0 0-.027-.05l.08.178a.7.7 0 0 0-.043-.108l-.01-.02zM26.83 36.27a3.102 3.102 0 0 1-3.66 0l-12.213-8.88V7.657h19.34a.216.216 0 0 0 .078 0h8.668V27.39L26.83 36.271zM9.129 26.062l-5.425-3.945a118.48 118.48 0 0 0 5.425-4.197v8.142zm9.281 9.02L3.056 46.42V23.917L18.41 35.08zm13.18-.001l15.352-11.164v22.502L31.589 35.08zm-3.69 2.682l2.132-1.55L45.07 47.318H4.93l15.037-11.105 2.13 1.55a4.925 4.925 0 0 0 5.803 0l-.11-.152.11.152zm12.972-19.9a117.498 117.498 0 0 0 5.429 4.25l-5.43 3.948v-8.197z" fill="#000" stroke="#000" stroke-width=".4"/><path d="M28.863 28.185l.154-.082-.06-.164-.393-1.068-.081-.22-.205.115c-.975.551-2.245.844-3.624.844-1.775 0-3.304-.622-4.39-1.737-1.085-1.115-1.742-2.74-1.742-4.77 0-4.944 3.299-8.046 7.192-8.046 1.863 0 3.298.628 4.268 1.678.973 1.05 1.497 2.545 1.497 4.307 0 1.41-.344 2.512-.827 3.253-.486.745-1.096 1.102-1.63 1.092a.607.607 0 0 1-.387-.133c-.098-.082-.182-.213-.239-.414-.116-.41-.105-1.06.078-1.996v-.002l.837-4.496.029-.152-.14-.066c-.67-.312-1.637-.54-2.722-.54-3.545 0-6.039 2.906-6.039 6.087 0 2.053 1.304 3.329 2.86 3.329 1.416 0 2.528-.631 3.388-1.875.058.547.257.977.556 1.288.386.404.916.587 1.454.587 2.466 0 4.586-2.32 4.586-6.11 0-2.122-.738-3.969-2.035-5.286-1.297-1.318-3.143-2.094-5.336-2.094-5.602 0-9.194 4.532-9.194 9.738 0 4.883 3.517 7.95 7.665 7.95 1.676 0 3.09-.278 4.48-1.017zm-2.162-8.136v.002c-.13.733-.508 1.546-1.026 2.173-.522.631-1.155 1.039-1.783 1.039-.49 0-.836-.177-1.065-.46-.234-.29-.362-.712-.362-1.228 0-2.326 1.685-4.27 3.718-4.27.426 0 .764.058 1.002.117l-.484 2.627z" fill="#000" stroke="#000" stroke-width=".4"/></svg>