<svg width="51" height="64" viewBox="0 0 51 64" fill="none" xmlns="http://www.w3.org/2000/svg"><g clip-path="url(#a)"><mask id="b" maskUnits="userSpaceOnUse" x="-1" y="1.416" width="53" height="48" fill="#000"><path fill="#fff" d="M-1 1.416h53v48H-1z"/><path d="M25.615 2.416C12.66 2.416 0 9.473 0 9.473v9.428c0 .23.258.417.575.417h11.876c.318 0 .575-.186.575-.417v-6.277c3.044-.636 12.906-2.024 24.848-.1v6.377c0 .23.258.417.575.417h11.975c.318 0 .576-.186.576-.417V9.473S38.569 2.416 25.615 2.416zm23.393 14.902h-9.142V10.89c-13.934-3.09-28.832.108-28.832.108v6.32H1.993v-6.63c3.198-1.604 13.08-6.271 23.622-6.271 11.009 0 22.136 5.62 23.393 6.261v6.64zm-5.893 5.132a2.497 2.497 0 0 0-2.444-2.02h-5.658v-5.746h-8.268v5.101h-2.49v-5.1h-8.267v5.745h-5.66c-1.188 0-2.215.85-2.443 2.02L3.334 45.804a2.498 2.498 0 0 0 2.443 2.98h39.446a2.5 2.5 0 0 0 2.444-2.98L43.115 22.45zm2.108 24.334H5.777a.5.5 0 0 1-.488-.596L9.84 22.834a.5.5 0 0 1 .489-.404h7.65v-5.746h4.284v5.101h6.474v-5.101h4.283v5.746h7.651a.5.5 0 0 1 .489.404l4.55 23.354c-.103.414.103.596-.487.596zM33.498 27.737c-3.692-4.427-10.284-5.013-14.694-1.306-4.41 3.706-4.994 10.324-1.302 14.752 3.477 4.169 9.525 4.931 13.902 1.91a.992.992 0 0 0 1.377.097 1 1 0 0 0 .147-1.378c3.731-3.794 4.047-9.906.57-14.075zm-1.856 12.53l-1.33-1.472a.994.994 0 0 0-1.403-.125 1.004 1.004 0 0 0-.124 1.41l1.33 1.47a8.426 8.426 0 0 1-11.085-1.651c-2.987-3.582-2.515-8.936 1.053-11.935 3.567-3 8.9-2.525 11.888 1.057 2.77 3.322 2.563 8.168-.329 11.246zM24.13 28.25c0-.76.613-1.376 1.37-1.376.757 0 1.37.616 1.37 1.376 0 .76-.613 1.376-1.37 1.376-.757 0-1.37-.616-1.37-1.376zm1.37 2.942a3.295 3.295 0 0 0-3.285 3.298 3.295 3.295 0 0 0 3.285 3.298 3.295 3.295 0 0 0 3.285-3.298 3.295 3.295 0 0 0-3.285-3.298zm0 4.596a1.297 1.297 0 0 1-1.293-1.298c0-.715.58-1.298 1.293-1.298a1.297 1.297 0 0 1 0 2.596zm1.37 4.942c0 .76-.613 1.376-1.37 1.376-.757 0-1.37-.615-1.37-1.376 0-.76.613-1.375 1.37-1.375.757 0 1.37.615 1.37 1.375zm6.216-6.24c0 .76-.613 1.376-1.37 1.376a1.373 1.373 0 0 1-1.371-1.376c0-.76.613-1.376 1.37-1.376.758 0 1.371.617 1.371 1.376zm-13.801 1.376c-.757 0-1.37-.616-1.37-1.376 0-.76.613-1.376 1.37-1.376.756 0 1.37.616 1.37 1.376 0 .76-.614 1.376-1.37 1.376zm11.58-4.816a1.365 1.365 0 0 1-1.938 0 1.379 1.379 0 0 1 0-1.945 1.366 1.366 0 0 1 1.937 0 1.38 1.38 0 0 1 0 1.945zm-8.791 6.88a1.38 1.38 0 0 1 0 1.945 1.366 1.366 0 0 1-1.938 0 1.38 1.38 0 0 1 0-1.945 1.366 1.366 0 0 1 1.938 0zm-1.938-6.88a1.38 1.38 0 0 1 0-1.945 1.367 1.367 0 0 1 1.938 0 1.38 1.38 0 0 1 0 1.945 1.366 1.366 0 0 1-1.938 0z"/></mask><path d="M25.615 2.416C12.66 2.416 0 9.473 0 9.473v9.428c0 .23.258.417.575.417h11.876c.318 0 .575-.186.575-.417v-6.277c3.044-.636 12.906-2.024 24.848-.1v6.377c0 .23.258.417.575.417h11.975c.318 0 .576-.186.576-.417V9.473S38.569 2.416 25.615 2.416zm23.393 14.902h-9.142V10.89c-13.934-3.09-28.832.108-28.832.108v6.32H1.993v-6.63c3.198-1.604 13.08-6.271 23.622-6.271 11.009 0 22.136 5.62 23.393 6.261v6.64zm-5.893 5.132a2.497 2.497 0 0 0-2.444-2.02h-5.658v-5.746h-8.268v5.101h-2.49v-5.1h-8.267v5.745h-5.66c-1.188 0-2.215.85-2.443 2.02L3.334 45.804a2.498 2.498 0 0 0 2.443 2.98h39.446a2.5 2.5 0 0 0 2.444-2.98L43.115 22.45zm2.108 24.334H5.777a.5.5 0 0 1-.488-.596L9.84 22.834a.5.5 0 0 1 .489-.404h7.65v-5.746h4.284v5.101h6.474v-5.101h4.283v5.746h7.651a.5.5 0 0 1 .489.404l4.55 23.354c-.103.414.103.596-.487.596zM33.498 27.737c-3.692-4.427-10.284-5.013-14.694-1.306-4.41 3.706-4.994 10.324-1.302 14.752 3.477 4.169 9.525 4.931 13.902 1.91a.992.992 0 0 0 1.377.097 1 1 0 0 0 .147-1.378c3.731-3.794 4.047-9.906.57-14.075zm-1.856 12.53l-1.33-1.472a.994.994 0 0 0-1.403-.125 1.004 1.004 0 0 0-.124 1.41l1.33 1.47a8.426 8.426 0 0 1-11.085-1.651c-2.987-3.582-2.515-8.936 1.053-11.935 3.567-3 8.9-2.525 11.888 1.057 2.77 3.322 2.563 8.168-.329 11.246zM24.13 28.25c0-.76.613-1.376 1.37-1.376.757 0 1.37.616 1.37 1.376 0 .76-.613 1.376-1.37 1.376-.757 0-1.37-.616-1.37-1.376zm1.37 2.942a3.295 3.295 0 0 0-3.285 3.298 3.295 3.295 0 0 0 3.285 3.298 3.295 3.295 0 0 0 3.285-3.298 3.295 3.295 0 0 0-3.285-3.298zm0 4.596a1.297 1.297 0 0 1-1.293-1.298c0-.715.58-1.298 1.293-1.298a1.297 1.297 0 0 1 0 2.596zm1.37 4.942c0 .76-.613 1.376-1.37 1.376-.757 0-1.37-.615-1.37-1.376 0-.76.613-1.375 1.37-1.375.757 0 1.37.615 1.37 1.375zm6.216-6.24c0 .76-.613 1.376-1.37 1.376a1.373 1.373 0 0 1-1.371-1.376c0-.76.613-1.376 1.37-1.376.758 0 1.371.617 1.371 1.376zm-13.801 1.376c-.757 0-1.37-.616-1.37-1.376 0-.76.613-1.376 1.37-1.376.756 0 1.37.616 1.37 1.376 0 .76-.614 1.376-1.37 1.376zm11.58-4.816a1.365 1.365 0 0 1-1.938 0 1.379 1.379 0 0 1 0-1.945 1.366 1.366 0 0 1 1.937 0 1.38 1.38 0 0 1 0 1.945zm-8.791 6.88a1.38 1.38 0 0 1 0 1.945 1.366 1.366 0 0 1-1.938 0 1.38 1.38 0 0 1 0-1.945 1.366 1.366 0 0 1 1.938 0zm-1.938-6.88a1.38 1.38 0 0 1 0-1.945 1.367 1.367 0 0 1 1.938 0 1.38 1.38 0 0 1 0 1.945 1.366 1.366 0 0 1-1.938 0z" fill="#000"/><path d="M25.615 2.416C12.66 2.416 0 9.473 0 9.473v9.428c0 .23.258.417.575.417h11.876c.318 0 .575-.186.575-.417v-6.277c3.044-.636 12.906-2.024 24.848-.1v6.377c0 .23.258.417.575.417h11.975c.318 0 .576-.186.576-.417V9.473S38.569 2.416 25.615 2.416zm23.393 14.902h-9.142V10.89c-13.934-3.09-28.832.108-28.832.108v6.32H1.993v-6.63c3.198-1.604 13.08-6.271 23.622-6.271 11.009 0 22.136 5.62 23.393 6.261v6.64zm-5.893 5.132a2.497 2.497 0 0 0-2.444-2.02h-5.658v-5.746h-8.268v5.101h-2.49v-5.1h-8.267v5.745h-5.66c-1.188 0-2.215.85-2.443 2.02L3.334 45.804a2.498 2.498 0 0 0 2.443 2.98h39.446a2.5 2.5 0 0 0 2.444-2.98L43.115 22.45zm2.108 24.334H5.777a.5.5 0 0 1-.488-.596L9.84 22.834a.5.5 0 0 1 .489-.404h7.65v-5.746h4.284v5.101h6.474v-5.101h4.283v5.746h7.651a.5.5 0 0 1 .489.404l4.55 23.354c-.103.414.103.596-.487.596zM33.498 27.737c-3.692-4.427-10.284-5.013-14.694-1.306-4.41 3.706-4.994 10.324-1.302 14.752 3.477 4.169 9.525 4.931 13.902 1.91a.992.992 0 0 0 1.377.097 1 1 0 0 0 .147-1.378c3.731-3.794 4.047-9.906.57-14.075zm-1.856 12.53l-1.33-1.472a.994.994 0 0 0-1.403-.125 1.004 1.004 0 0 0-.124 1.41l1.33 1.47a8.426 8.426 0 0 1-11.085-1.651c-2.987-3.582-2.515-8.936 1.053-11.935 3.567-3 8.9-2.525 11.888 1.057 2.77 3.322 2.563 8.168-.329 11.246zM24.13 28.25c0-.76.613-1.376 1.37-1.376.757 0 1.37.616 1.37 1.376 0 .76-.613 1.376-1.37 1.376-.757 0-1.37-.616-1.37-1.376zm1.37 2.942a3.295 3.295 0 0 0-3.285 3.298 3.295 3.295 0 0 0 3.285 3.298 3.295 3.295 0 0 0 3.285-3.298 3.295 3.295 0 0 0-3.285-3.298zm0 4.596a1.297 1.297 0 0 1-1.293-1.298c0-.715.58-1.298 1.293-1.298a1.297 1.297 0 0 1 0 2.596zm1.37 4.942c0 .76-.613 1.376-1.37 1.376-.757 0-1.37-.615-1.37-1.376 0-.76.613-1.375 1.37-1.375.757 0 1.37.615 1.37 1.375zm6.216-6.24c0 .76-.613 1.376-1.37 1.376a1.373 1.373 0 0 1-1.371-1.376c0-.76.613-1.376 1.37-1.376.758 0 1.371.617 1.371 1.376zm-13.801 1.376c-.757 0-1.37-.616-1.37-1.376 0-.76.613-1.376 1.37-1.376.756 0 1.37.616 1.37 1.376 0 .76-.614 1.376-1.37 1.376zm11.58-4.816a1.365 1.365 0 0 1-1.938 0 1.379 1.379 0 0 1 0-1.945 1.366 1.366 0 0 1 1.937 0 1.38 1.38 0 0 1 0 1.945zm-8.791 6.88a1.38 1.38 0 0 1 0 1.945 1.366 1.366 0 0 1-1.938 0 1.38 1.38 0 0 1 0-1.945 1.366 1.366 0 0 1 1.938 0zm-1.938-6.88a1.38 1.38 0 0 1 0-1.945 1.367 1.367 0 0 1 1.938 0 1.38 1.38 0 0 1 0 1.945 1.366 1.366 0 0 1-1.938 0z" stroke="#000" stroke-width=".4" mask="url(#b)"/></g><defs><clipPath id="a"><path fill="#fff" d="M0 0h51v64H0z"/></clipPath></defs></svg>