<svg width="131" height="88" viewBox="0 0 131 88" fill="none" xmlns="http://www.w3.org/2000/svg"><g clip-path="url(#a)"><path d="M77.778 17.636v-.097a1.116 1.116 0 0 0-.25-.377.81.81 0 0 0-.168-.14l-8.343-5.576-.14-.07h-.138a1.389 1.389 0 0 0-.598-.223H31.372c-.944 0-1.85.376-2.517 1.046a3.574 3.574 0 0 0-1.043 2.523v21.624a3.604 3.604 0 0 0-.778-.097H14.685c-.944 0-1.85.376-2.517 1.045a3.574 3.574 0 0 0-1.043 2.524v28.497a9.78 9.78 0 0 0 2.136 6.1 9.73 9.73 0 0 0 5.47 3.422c.22.148.475.23.738.237H68.14a9.722 9.722 0 0 0 6.883-2.858 9.772 9.772 0 0 0 2.851-6.901v-50.19a1.4 1.4 0 0 0-.097-.489zm-9.637 1.882v4.183H36.156v-4.183h31.985zm1.39-2.788v-1.575l2.364 1.575h-2.364zM13.906 68.315V39.818a.782.782 0 0 1 .779-.781h12.349a.778.778 0 0 1 .779.78v28.498a6.98 6.98 0 0 1-2.037 4.93 6.944 6.944 0 0 1-9.833 0 6.98 6.98 0 0 1-2.037-4.93zm54.235 6.97H27.659a9.762 9.762 0 0 0 2.935-6.97V14.722a.78.78 0 0 1 .778-.78H66.75v2.788H34.766a1.389 1.389 0 0 0-1.391 1.394v6.971a1.396 1.396 0 0 0 1.39 1.394h34.766a1.389 1.389 0 0 0 1.39-1.394v-5.577h4.173v48.797a6.98 6.98 0 0 1-2.037 4.93 6.944 6.944 0 0 1-4.916 2.04zM55.625 30.673a1.396 1.396 0 0 1-1.39 1.394h-19.47a1.389 1.389 0 0 1-1.39-1.394 1.396 1.396 0 0 1 1.39-1.394h19.47a1.389 1.389 0 0 1 1.39 1.394zm0 5.577a1.396 1.396 0 0 1-1.39 1.394h-19.47a1.389 1.389 0 0 1-1.39-1.394 1.396 1.396 0 0 1 1.39-1.395h19.47a1.389 1.389 0 0 1 1.39 1.395zm0 5.576a1.396 1.396 0 0 1-1.39 1.395h-19.47a1.389 1.389 0 0 1-1.39-1.395 1.396 1.396 0 0 1 1.39-1.394h19.47a1.389 1.389 0 0 1 1.39 1.394zm0 5.577a1.396 1.396 0 0 1-1.39 1.394h-19.47a1.389 1.389 0 0 1-1.39-1.394 1.396 1.396 0 0 1 1.39-1.394h19.47a1.389 1.389 0 0 1 1.39 1.394zm0 5.577a1.396 1.396 0 0 1-1.39 1.394h-19.47a1.389 1.389 0 0 1-1.39-1.394 1.396 1.396 0 0 1 1.39-1.394h19.47a1.389 1.389 0 0 1 1.39 1.394zm0 5.577a1.396 1.396 0 0 1-1.39 1.394h-19.47a1.389 1.389 0 0 1-1.39-1.394 1.396 1.396 0 0 1 1.39-1.395h19.47a1.389 1.389 0 0 1 1.39 1.395zm-1.39 4.182h-19.47a1.389 1.389 0 0 0-1.39 1.394v6.971a1.396 1.396 0 0 0 1.39 1.395h19.47a1.389 1.389 0 0 0 1.39-1.395v-6.97a1.396 1.396 0 0 0-1.39-1.395zm-1.391 6.971H36.156v-4.182h16.688v4.182zm18.078-6.97H59.797a1.389 1.389 0 0 0-1.39 1.393v6.971a1.396 1.396 0 0 0 1.39 1.395h11.125a1.389 1.389 0 0 0 1.39-1.395v-6.97a1.396 1.396 0 0 0-1.39-1.395zm-1.39 6.97h-8.344v-4.182h8.343v4.182zm1.39-40.431H59.797a1.389 1.389 0 0 0-1.39 1.394v27.884a1.396 1.396 0 0 0 1.39 1.394h11.125a1.389 1.389 0 0 0 1.39-1.394V30.672a1.396 1.396 0 0 0-1.39-1.394zm-1.39 27.883h-8.344V32.066h8.343v25.095z" fill="#000"/></g><circle cx="84" cy="45" r="16.5" fill="#FFF6E5" stroke="#000" stroke-width="3"/><path d="M80.071 43.367l-.002.001-5.091 4.384a.794.794 0 0 0-.278.594c0 .231.111.453.278.595h.001l5.103 4.378c.152.148.35.2.511.2a.75.75 0 0 0 .59-.28l.002-.003a.801.801 0 0 0-.089-1.12l-4.394-3.77 4.395-3.77a.801.801 0 0 0 .088-1.12.785.785 0 0 0-1.114-.09z" fill="#000" stroke="#000" stroke-width=".5"/><path d="M75.482 49.135h16.036a.797.797 0 0 0 .782-.788.784.784 0 0 0-.782-.789H75.482a.797.797 0 0 0-.782.789c0 .417.331.788.782.788zm10.421-12.021l4.396 3.771-4.395 3.79a.801.801 0 0 0-.094 1.112c.152.21.387.29.597.29a.783.783 0 0 0 .523-.193l.002-.002 5.09-4.403a.794.794 0 0 0 .278-.594c0-.23-.11-.453-.277-.594l-5.091-4.384-.002-.002a.785.785 0 0 0-1.115.09.801.801 0 0 0 .088 1.119z" fill="#000" stroke="#000" stroke-width=".5"/><path d="M75.482 41.674h16.036a.797.797 0 0 0 .782-.789.784.784 0 0 0-.782-.788H75.482a.797.797 0 0 0-.782.788c0 .418.331.789.782.789z" fill="#000" stroke="#000" stroke-width=".5"/><defs><clipPath id="a"><path fill="#fff" d="M0 0h131v88H0z"/></clipPath></defs></svg>