<svg width="100" height="98" viewBox="0 0 100 98" fill="none" xmlns="http://www.w3.org/2000/svg"><g clip-path="url(#a)" fill="#000"><path d="M34.375 57.104H31.25v3.161h3.125v-3.161zm28.125 0h-3.125v3.161H62.5v-3.161zM45.313 46.04v2.802a5.046 5.046 0 0 0-3.33 1.62 5.16 5.16 0 0 0-1.358 3.478v1.185a5.174 5.174 0 0 0 1.49 3.63 5.055 5.055 0 0 0 3.588 1.507h2.344c.518.001 1.015.21 1.381.58.366.372.572.875.572 1.4v1.185a1.99 1.99 0 0 1-.573 1.396c-.366.37-.862.579-1.38.58h-2.344a1.947 1.947 0 0 1-1.38-.58 1.99 1.99 0 0 1-.573-1.396h-3.125a5.162 5.162 0 0 0 1.358 3.476 5.048 5.048 0 0 0 3.33 1.621v2.806h3.124v-2.806a5.048 5.048 0 0 0 3.33-1.62 5.162 5.162 0 0 0 1.358-3.477V62.24a5.174 5.174 0 0 0-1.49-3.63 5.055 5.055 0 0 0-3.588-1.507h-2.344c-.518 0-1.014-.21-1.38-.58a1.99 1.99 0 0 1-.573-1.396v-1.185c0-.524.207-1.026.573-1.396.366-.37.862-.58 1.38-.58h2.344c.518 0 1.014.21 1.38.58.366.37.572.872.573 1.396h3.125a5.16 5.16 0 0 0-1.356-3.48 5.046 5.046 0 0 0-3.331-1.621V46.04h-3.126z"/><path d="M4.867 64.162c.133.255.332.468.575.617.244.15.523.228.808.228h.027l4.053-.07c1.215 4.488 6.354 18.837 22.369 18.837.674 0 1.368-.026 2.082-.079.384-.03.744-.202 1.01-.483a1.59 1.59 0 0 0 .068-2.109 1.558 1.558 0 0 0-.976-.549 19.748 19.748 0 0 1-12.031-7.644h7.287a21.735 21.735 0 0 0 10.585 7.017 21.514 21.514 0 0 0 12.654-.131 4.612 4.612 0 0 0 2.872 1.018h26.563a4.66 4.66 0 0 0 3.314-1.39 4.77 4.77 0 0 0 1.373-3.352v-1.58a4.77 4.77 0 0 0-1.373-3.354 4.66 4.66 0 0 0-3.314-1.389h-1.85c.185-.506.282-1.04.287-1.58v-1.581a4.742 4.742 0 0 0-1.219-3.161 4.742 4.742 0 0 0 1.22-3.162v-1.58a4.742 4.742 0 0 0-1.22-3.162 4.742 4.742 0 0 0 1.22-3.161v-1.58a4.77 4.77 0 0 0-1.374-3.354 4.66 4.66 0 0 0-3.314-1.389H64.802a21.952 21.952 0 0 0-7.135-6.577 21.675 21.675 0 0 0-9.24-2.827c0-.027.01-.052.01-.08v-1.58a4.727 4.727 0 0 0-1.08-2.994L57.884 21.34 69.29 31.43a1.551 1.551 0 0 0 2.187-.122l14.46-15.977v3.636h3.125v-7.903c0-.42-.165-.822-.458-1.118a1.553 1.553 0 0 0-1.105-.463h-7.812v3.161h4.442l-13.938 15.38L58.84 17.977a1.552 1.552 0 0 0-2.133.073l-8.33 8.426a4.733 4.733 0 0 0-1.16-2.567 4.742 4.742 0 0 0 1.22-3.16v-1.581a4.77 4.77 0 0 0-1.373-3.354 4.66 4.66 0 0 0-3.315-1.388H17.188a4.66 4.66 0 0 0-3.315 1.388A4.77 4.77 0 0 0 12.5 19.17v1.58a4.743 4.743 0 0 0 1.219 3.161 4.743 4.743 0 0 0-1.219 3.162v1.58a4.743 4.743 0 0 0 1.219 3.162 4.742 4.742 0 0 0-1.219 3.161v1.58a4.743 4.743 0 0 0 1.219 3.162 4.743 4.743 0 0 0-1.219 3.161v1.58a4.743 4.743 0 0 0 1.219 3.162 4.743 4.743 0 0 0-1.219 3.161v1.075L4.98 62.508a1.592 1.592 0 0 0-.113 1.654zm16.05 5.587a24.514 24.514 0 0 1-1.77-4.742h6.775a22.039 22.039 0 0 0 2.031 4.742h-7.036zm-5.292-18.968c0-.419.165-.82.458-1.117a1.55 1.55 0 0 1 1.105-.463h9.953a22.086 22.086 0 0 0-1.622 4.742h-8.061l-1.833-2.164v-.998zm0-6.322v-1.58c0-.42.165-.822.458-1.118.293-.297.69-.464 1.105-.464h16.2a22.174 22.174 0 0 0-4.44 4.742h-11.76c-.415 0-.812-.166-1.105-.462a1.59 1.59 0 0 1-.458-1.118zm0-7.903v-1.581c0-.42.165-.821.458-1.118.293-.296.69-.463 1.105-.463H43.75c.414 0 .812.167 1.105.463.293.297.458.699.458 1.118v1.58c0 .028-.01.054-.011.081-2.23.158-4.422.664-6.499 1.5H17.188a1.545 1.545 0 0 1-1.105-.463 1.585 1.585 0 0 1-.458-1.117zm0-7.904v-1.58c0-.42.165-.822.458-1.118.293-.296.69-.463 1.105-.463H43.75c.414 0 .812.167 1.105.463.293.296.458.698.458 1.118v1.58c0 .42-.165.822-.458 1.118a1.55 1.55 0 0 1-1.105.463H17.188a1.547 1.547 0 0 1-1.105-.463 1.586 1.586 0 0 1-.458-1.118zm9.455 28.452c-.038.525-.08 1.046-.08 1.58a22.2 22.2 0 0 0 .25 3.162h-1.094l-4.017-4.742h4.94zm59.295 17.387v1.58c0 .42-.165.822-.458 1.118a1.55 1.55 0 0 1-1.104.463H56.25c-.414 0-.812-.166-1.105-.463a1.59 1.59 0 0 1-.457-1.117v-1.58c0-.42.164-.822.457-1.119.293-.296.69-.463 1.105-.463h26.563c.414 0 .811.167 1.104.463.293.297.458.699.458 1.118zM65.808 69.75a21.816 21.816 0 0 0 2.031-4.742h8.724c.414 0 .811.167 1.105.463.292.297.457.699.457 1.118v1.58c0 .42-.165.822-.457 1.118a1.554 1.554 0 0 1-1.105.463H65.808zm2.862-12.645h7.893c.414 0 .811.166 1.105.463.292.296.457.698.457 1.118v1.58c0 .42-.165.822-.457 1.118a1.558 1.558 0 0 1-1.105.463h-8.047c.151-1.047.23-2.103.234-3.161 0-.535-.042-1.056-.08-1.581zm7.893-7.903c.414 0 .811.166 1.105.463.292.296.457.698.457 1.117v1.581c0 .42-.165.821-.457 1.118a1.558 1.558 0 0 1-1.105.463H68.23a22.08 22.08 0 0 0-1.62-4.744h9.953zm-10.938 9.484a18.905 18.905 0 0 1-3.539 11.064H56.25a4.66 4.66 0 0 0-3.315 1.389 4.77 4.77 0 0 0-1.372 3.353v1.58c0 .32.032.637.095.95a18.547 18.547 0 0 1-11.447-.612 18.79 18.79 0 0 1-8.957-7.238 19.13 19.13 0 0 1-3.117-11.16 19.104 19.104 0 0 1 3.886-10.909 18.747 18.747 0 0 1 9.438-6.582 18.546 18.546 0 0 1 11.462.206 18.77 18.77 0 0 1 9.2 6.916 19.118 19.118 0 0 1 3.502 11.043zm-50-39.517c0-.419.165-.82.458-1.117a1.55 1.55 0 0 1 1.105-.463H43.75c.414 0 .812.166 1.105.463.293.296.458.698.458 1.118v1.58c0 .42-.165.821-.458 1.118-.293.296-.69.463-1.105.463H17.188c-.415 0-.812-.167-1.105-.463a1.59 1.59 0 0 1-.458-1.118v-1.58zm-1.451 35.755l5.867 6.923h-2.853a1.548 1.548 0 0 0-1.205.575 1.586 1.586 0 0 0-.328 1.306 24.885 24.885 0 0 0 8.389 14.935c-8.82-4.45-10.847-15.016-10.952-15.607a1.585 1.585 0 0 0-.535-.933 1.552 1.552 0 0 0-1.002-.368h-.027l-2.204.04 4.85-6.871z"/></g><defs><clipPath id="a"><path fill="#fff" d="M0 0h100v98H0z"/></clipPath></defs></svg>