<svg width="79" height="95" viewBox="0 0 79 95" fill="none" xmlns="http://www.w3.org/2000/svg"><path d="M25.016 13.059h22.982c.718 0 1.197-.459 1.197-1.146 0-.687-.479-1.145-1.197-1.145H25.016c-.718 0-1.197.458-1.197 1.145s.599 1.146 1.197 1.146zm24.299 7.674c0-.687-.479-1.146-1.197-1.146H29.924c-.718 0-1.197.459-1.197 1.146 0 .687.479 1.145 1.197 1.145h18.074c.718 0 1.317-.572 1.317-1.145zm-1.197 7.56h-15.8c-.718 0-1.197.458-1.197 1.145 0 .688.479 1.146 1.197 1.146h15.68c.719 0 1.197-.458 1.197-1.146.12-.687-.478-1.145-1.077-1.145zm-3.83 8.705h-9.456c-.718 0-1.197.458-1.197 1.146 0 .687.479 1.145 1.197 1.145h9.456c.718 0 1.197-.458 1.197-1.145 0-.688-.479-1.146-1.197-1.146zm-16.04 8.706H10.294c-.719 0-1.197.458-1.197 1.145s.478 1.146 1.197 1.146h17.954c.718 0 1.197-.459 1.197-1.146 0-.687-.479-1.145-1.197-1.145zm-4.07 8.706H10.294c-.719 0-1.197.457-1.197 1.145 0 .687.478 1.145 1.197 1.145h13.884c.719 0 1.197-.458 1.197-1.145 0-.688-.598-1.146-1.197-1.146zm-4.428 8.705h-9.456c-.719 0-1.197.458-1.197 1.145 0 .688.478 1.146 1.197 1.146h9.456c.718 0 1.197-.459 1.197-1.146 0-.687-.599-1.145-1.197-1.145z" fill="#000" stroke="#000" stroke-width=".6"/><path d="M77.085 24.971l-5.147-4.925c-.958-.917-2.514-.917-3.352 0L57.215 30.927V6.644c0-1.948-1.676-3.437-3.591-3.437-39.74 0-37.226-.114-37.585.115-.479.114-14.603 13.63-14.723 14.089-.12.458 0-2.864-.12 51.545 0 1.948 1.677 3.437 3.592 3.437h48.716c2.035 0 3.591-1.604 3.591-3.437V47.307l19.99-19.129c.957-.802.957-2.29 0-3.207zM55.18 45.933c-.12 0-.12.114-.24.229L42.374 58.189l-1.676-1.603 27.29-26.117 1.676 1.604-14.483 13.86zM36.148 55.44l4.07 3.895-6.105 1.947 2.035-5.842zm2.873-.458l-1.676-1.604 27.291-26.23 1.676 1.603-27.291 26.23zm-23.82-47.88v9.507H5.266l9.935-9.507zm39.62 61.854c0 .688-.599 1.146-1.197 1.146H4.788a1.174 1.174 0 0 1-1.197-1.146V18.9h12.807c.718 0 1.197-.458 1.197-1.145V5.498h35.91c.717 0 1.196.573 1.196 1.146v26.689l-19.99 19.129c-.358.343-.239.343-3.71 10.309-.24.687.36 1.49 1.078 1.49.12 0 .239 0 .359-.115l10.294-3.322c.12 0 .359-.115.478-.23l11.491-10.996v19.358h.12zM71.459 30.47l-5.147-4.925 3.95-3.78 5.147 4.925-3.95 3.78z" fill="#000" stroke="#000" stroke-width=".6"/><path d="M17.206 20.618v2.412a4.351 4.351 0 0 0-2.87 1.394 4.437 4.437 0 0 0-1.17 2.993v1.02a4.449 4.449 0 0 0 1.284 3.124 4.36 4.36 0 0 0 3.093 1.297h2.02c.447 0 .875.18 1.19.5.316.319.493.751.493 1.203v1.02c0 .45-.178.882-.494 1.201a1.678 1.678 0 0 1-1.19.499h-2.02c-.445 0-.873-.18-1.189-.499a1.712 1.712 0 0 1-.493-1.201h-2.694a4.438 4.438 0 0 0 1.17 2.991 4.352 4.352 0 0 0 2.87 1.395v2.415H19.9v-2.415a4.352 4.352 0 0 0 2.869-1.395 4.438 4.438 0 0 0 1.17-2.991v-1.02a4.449 4.449 0 0 0-1.283-3.125 4.36 4.36 0 0 0-3.093-1.296h-2.02a1.68 1.68 0 0 1-1.19-.499 1.712 1.712 0 0 1-.493-1.201v-1.02c0-.451.178-.884.494-1.202a1.677 1.677 0 0 1 1.189-.499h2.02c.446 0 .874.18 1.19.499.315.319.492.75.493 1.201h2.693a4.437 4.437 0 0 0-1.169-2.994 4.351 4.351 0 0 0-2.87-1.395v-2.412h-2.694z" fill="#000" stroke="#000" stroke-width=".6"/></svg>